<svg version="1.1" id="Layer_1" xmlns="http://www.w3.org/2000/svg" xmlns:xlink="http://www.w3.org/1999/xlink" x="0px" y="0px"
	 width="100%" viewBox="0 0 500 500" enable-background="new 0 0 500 500" xml:space="preserve">
<path fill="#FFFFFF" opacity="1.000000" stroke="none" 
	d="
M343.000000,501.000000 
	C228.666687,501.000000 114.833389,501.000000 1.000061,501.000000 
	C1.000041,334.333405 1.000041,167.666794 1.000020,1.000151 
	C167.666565,1.000100 334.333130,1.000100 500.999756,1.000050 
	C500.999847,167.666519 500.999847,334.333038 500.999939,500.999786 
	C448.500000,501.000000 396.000000,501.000000 343.000000,501.000000 
M248.592621,212.985962 
	C248.787018,212.684097 248.981415,212.382233 249.079575,212.082336 
	C249.079575,212.082336 249.115891,212.171463 249.706665,211.963135 
	C250.255035,211.345810 250.803406,210.728500 251.946991,209.888840 
	C253.901276,208.217834 255.855560,206.546844 258.227905,205.462631 
	C259.482605,207.651657 260.737274,209.840683 262.065735,212.714676 
	C262.510712,213.784012 262.955688,214.853363 263.039307,216.536316 
	C248.183304,228.254547 233.690552,240.476242 218.360443,251.537384 
	C205.248627,260.997986 189.893433,265.605530 173.719543,264.568359 
	C150.337982,263.068878 132.738708,251.142441 120.555573,231.369797 
	C116.936073,225.495499 114.350258,218.984283 111.130806,212.238785 
	C111.035500,211.884827 110.940186,211.530884 111.037888,210.471069 
	C110.677391,209.641876 110.316895,208.812668 109.869827,207.575577 
	C109.869827,207.575577 109.806091,207.163513 109.997833,206.466965 
	C109.692505,205.613449 109.387184,204.759933 108.935432,203.048660 
	C108.664642,201.236008 108.293571,199.431580 108.144440,197.608963 
	C107.854759,194.068756 107.689697,190.518341 107.413452,185.997437 
	C104.261421,212.882751 108.086243,237.481277 122.070351,259.841858 
	C135.605606,281.484680 154.973526,293.666534 180.957855,294.281097 
	C207.606033,294.911316 230.133072,284.144379 250.616104,268.430969 
	C259.818390,261.371490 268.177948,253.213440 277.113556,246.289551 
	C278.371521,248.541687 279.629486,250.793823 280.963531,253.694489 
	C281.069061,254.116913 281.174622,254.539322 280.916443,255.552307 
	C275.639252,260.659302 270.362030,265.766266 264.482239,271.175903 
	C262.965088,272.426758 261.447937,273.677612 259.290710,275.113373 
	C257.536926,276.421143 255.783188,277.728943 253.359009,279.224365 
	C247.989746,282.072571 242.620483,284.920807 236.438660,288.200043 
	C244.267410,287.710693 251.196228,287.229095 258.130798,286.854431 
	C271.705780,286.121002 283.344116,281.709320 291.676941,270.070801 
	C295.102600,273.015381 298.528259,275.959930 302.656830,279.259460 
	C303.927490,279.542023 305.198151,279.824585 306.912018,280.686615 
	C313.034180,282.766174 319.029022,281.929810 325.750549,279.883057 
	C342.755981,276.131836 355.357391,266.420502 364.657318,251.038513 
	C367.383087,245.451630 370.108856,239.864746 372.834625,234.277863 
	C372.349640,234.046722 371.864655,233.815582 371.379669,233.584442 
	C368.905762,236.860870 366.431854,240.137299 363.343628,243.787140 
	C361.259277,245.525116 359.174896,247.263107 356.409515,249.202026 
	C349.936127,251.558975 343.462738,253.915924 336.139740,256.120941 
	C334.415558,256.138000 332.691406,256.155029 330.223907,255.987747 
	C326.140350,254.658401 322.056793,253.329041 317.470825,251.526993 
	C314.265076,249.330627 311.059296,247.134262 308.115234,244.302109 
	C313.872925,236.864853 319.318268,229.156265 325.476257,222.066727 
	C331.615997,214.998184 338.470276,208.550323 345.351410,201.603439 
	C345.580719,201.453018 345.815979,201.312500 346.571106,201.122269 
	C346.807373,200.884064 347.043640,200.645859 347.863953,200.079636 
	C349.037567,199.542770 350.211212,199.005905 351.863037,198.250275 
	C342.835510,196.946640 336.706329,201.800369 331.107635,206.708679 
	C321.143677,215.444000 311.761383,224.842804 301.826355,233.306290 
	C300.545410,230.480927 299.264496,227.655548 298.251465,224.227478 
	C301.258453,221.367004 304.074585,218.266968 307.308075,215.690796 
	C317.154419,207.846100 326.560333,199.210724 337.256866,192.730606 
	C350.996368,184.407043 366.676788,190.144577 375.417786,204.740036 
	C375.577362,203.499771 375.736908,202.259491 376.351410,200.592728 
	C375.769012,199.145599 375.186646,197.698471 374.540375,195.838959 
	C374.540375,195.838959 374.489227,195.424805 374.737488,194.676147 
	C374.079346,192.804398 373.614655,190.835541 372.731659,189.076675 
	C367.074890,177.808960 360.335693,167.669418 346.524261,165.445786 
	C336.374634,163.811676 327.234039,167.032516 318.257111,171.276718 
	C306.173248,176.989807 296.938690,186.396103 286.741516,194.312637 
	C285.125183,190.528229 283.508850,186.743820 282.237762,182.378708 
	C287.898102,177.659225 293.558441,172.939728 299.895691,168.051102 
	C301.307495,166.372147 302.719299,164.693192 304.711761,163.398087 
	C307.113617,162.823624 309.515442,162.249161 312.651703,161.533676 
	C315.377411,160.852020 318.103088,160.170380 321.566406,159.304276 
	C316.208038,157.343857 311.599487,155.536545 306.908600,153.976791 
	C302.534882,152.522491 298.152069,150.762375 293.635040,150.139786 
	C283.406647,148.729935 276.363495,154.378632 270.064850,161.192291 
	C264.360840,154.401733 258.656860,147.611176 252.686981,140.237869 
	C250.548859,138.432312 248.410736,136.626755 246.204346,134.853271 
	C246.204346,134.853271 246.178665,134.924194 246.448120,134.401947 
	C246.320847,134.253021 246.193588,134.104111 245.748657,133.368347 
	C243.849548,132.214920 241.950439,131.061508 239.623398,129.370087 
	C235.899506,127.533188 232.344955,125.099983 228.416275,123.984138 
	C220.362976,121.696793 212.109009,120.116005 203.015427,118.124878 
	C192.272583,118.767212 181.242004,118.066505 170.839005,120.295189 
	C134.728653,128.031265 109.743706,158.813538 114.943497,193.597168 
	C116.245636,202.307770 121.098412,216.432678 126.507858,223.074432 
	C125.890411,220.707764 125.536362,219.350693 125.106735,217.067612 
	C125.039528,213.025116 124.972321,208.982605 125.066353,204.193924 
	C127.079689,198.933990 129.093018,193.674057 131.680542,188.008270 
	C137.161667,182.780411 142.642792,177.552536 148.673904,172.162262 
	C148.917786,171.889694 149.161667,171.617111 149.316711,171.477310 
	C149.316711,171.477310 149.468842,171.526062 150.119049,171.278580 
	C164.006714,163.182465 179.115631,160.336807 195.806915,161.004288 
	C199.563828,161.571518 203.320724,162.138763 207.786346,162.972870 
	C216.866928,167.281631 225.947495,171.590393 235.466064,176.408127 
	C240.019928,181.008911 244.573792,185.609680 248.822739,190.803635 
	C234.463013,209.189560 218.278732,225.795715 199.826477,240.076065 
	C193.460037,245.003128 186.461273,249.113129 179.184387,253.993866 
	C178.259003,254.550446 177.333633,255.107025 176.408249,255.663605 
	C176.635651,256.061127 176.863068,256.458679 177.090469,256.856201 
	C201.760666,252.039017 220.794144,237.117432 239.607651,220.952011 
	C239.889313,220.805099 240.042099,220.573273 240.691666,219.997620 
	C242.479172,218.343384 244.266678,216.689148 246.003235,215.000626 
	C246.003235,215.000626 246.022797,215.058807 246.539749,214.913086 
	C246.729889,214.623184 246.920044,214.333267 247.032394,214.032471 
	C247.032394,214.032471 247.042740,214.110336 247.571808,213.961945 
	C247.761826,213.661102 247.951828,213.360275 248.048676,213.048874 
	C248.048676,213.048874 248.059784,213.141968 248.592621,212.985962 
M375.764679,182.603516 
	C376.168610,183.078629 376.572510,183.553741 377.095062,184.628464 
	C377.575226,185.269791 378.055389,185.911118 378.728241,186.691757 
	C378.728241,186.691757 378.909241,186.537567 378.809479,187.361801 
	C390.523560,212.458267 389.059784,236.379150 371.456543,260.180023 
	C373.806061,259.040100 374.894623,258.511932 376.602875,258.150696 
	C377.045807,257.745361 377.488739,257.340027 378.395081,256.790314 
	C378.710815,256.645691 378.914612,256.405945 379.685486,255.977356 
	C395.264435,241.896210 397.730042,224.231583 393.116791,204.955963 
	C391.010315,196.154495 387.070068,188.116302 378.797546,182.500000 
	C378.571747,182.251129 378.292511,182.103027 377.757141,181.437607 
	C376.628815,180.856033 375.500488,180.274460 374.137695,179.317230 
	C373.878021,179.357941 373.618347,179.398666 373.358673,179.439377 
	C373.563416,179.633728 373.768158,179.828064 374.045410,180.538055 
	C374.511261,181.039246 374.977081,181.540451 375.764679,182.603516 
M236.547958,340.092224 
	C236.108749,343.026123 235.669525,345.960022 235.238693,348.837952 
	C238.046387,348.837952 241.448517,348.837952 243.793457,348.837952 
	C241.933243,345.784821 239.893921,342.437775 238.024109,338.155396 
	C238.030426,336.162262 237.963928,334.165741 238.056839,332.176636 
	C238.323456,326.469055 238.654648,320.764496 239.293427,315.645966 
	C246.361954,325.502991 253.218994,335.522308 260.600311,345.139282 
	C263.666992,349.134766 267.787811,352.344757 271.596832,355.722961 
	C272.202942,356.260468 273.695648,355.798279 276.201965,355.798279 
	C274.872803,352.079437 274.413666,348.606995 272.580231,346.167236 
	C269.679962,342.307770 268.712952,338.371246 268.925415,333.696198 
	C269.204407,327.557556 268.881714,321.392944 269.096954,315.249298 
	C269.169891,313.166992 270.090698,311.114410 270.590912,309.176575 
	C267.714020,309.176575 264.341522,309.176575 260.593964,309.176575 
	C268.214111,314.382629 270.468384,323.808899 267.147186,335.905945 
	C261.332977,327.777435 255.701431,319.773132 249.886307,311.904480 
	C248.924973,310.603638 247.236252,309.214600 245.752014,309.049408 
	C242.071884,308.639893 238.315598,308.914856 234.401520,308.914856 
	C235.279556,310.562378 235.868790,311.668030 236.188950,313.710052 
	C236.356842,322.226044 236.524719,330.742065 236.547958,340.092224 
M361.345612,330.309753 
	C358.731934,330.309753 356.118256,330.309753 353.096924,330.309753 
	C352.975769,332.233398 352.874268,333.845367 352.841461,334.366577 
	C355.847351,333.509094 358.561401,332.734863 361.271851,332.902191 
	C361.271851,340.521210 361.271851,348.140198 361.271851,355.792847 
	C363.419830,355.792847 366.008606,355.792847 367.822540,355.792847 
	C367.822540,347.694244 367.822540,339.835663 368.687744,331.729675 
	C370.906738,331.729675 373.125763,331.729675 375.344757,331.729675 
	C375.321747,331.179169 375.298706,330.628662 375.275696,330.078156 
	C372.516968,330.294250 369.758270,330.510345 366.167633,330.649261 
	C364.776825,330.681976 363.386047,330.714722 361.345612,330.309753 
M296.840363,344.236206 
	C299.721802,344.236206 302.603241,344.236206 306.537598,344.236206 
	C306.537598,343.027771 307.159088,340.925354 306.375031,339.928772 
	C305.463409,338.770050 303.031891,337.732666 301.776001,338.159760 
	C299.655090,338.881104 297.940094,340.796021 295.198883,341.876587 
	C295.046021,338.468842 294.893158,335.061066 294.690125,330.534607 
	C299.313538,331.429962 302.992859,332.142517 306.440674,332.810211 
	C306.430603,332.926788 306.529846,331.778198 306.628723,330.633362 
	C300.204620,330.633362 293.943024,330.633362 287.732544,330.633362 
	C287.732544,339.144379 287.732544,347.442596 287.732544,355.859253 
	C289.887573,355.859253 292.144623,355.859253 294.145447,355.859253 
	C294.839478,351.916351 295.486511,348.240448 296.840363,344.236206 
M150.030304,246.957993 
	C150.030304,246.957993 150.093765,247.210632 150.093765,247.210632 
	C150.093765,247.210632 149.912674,247.048065 149.876328,246.342178 
	C136.756027,224.392715 138.922409,203.092209 153.134201,182.303024 
	C152.753067,182.013840 152.371933,181.724670 151.990799,181.435486 
	C149.686996,183.328278 147.383194,185.221054 144.423737,187.278152 
	C135.270523,197.538208 132.668243,209.665039 134.719147,222.898605 
	C135.918457,230.637100 138.151276,238.070343 145.292419,243.613770 
	C146.854218,244.779282 148.416016,245.944794 150.030304,246.957993 
M106.675293,347.262604 
	C114.470589,344.714813 115.266060,337.259247 117.948822,331.141663 
	C117.318512,331.047729 116.661606,330.949860 116.016647,330.095795 
	C116.529297,328.353668 117.280968,326.634949 117.454819,324.859650 
	C117.543144,323.957733 116.590721,322.953888 115.972755,321.214020 
	C114.701843,311.731323 108.509811,307.890747 96.112770,309.465515 
	C83.158234,313.553894 77.615555,327.387115 84.056702,339.554657 
	C88.586166,348.110992 98.649956,351.501068 105.985733,346.975250 
	C105.985733,346.975250 105.959839,347.042114 106.675293,347.262604 
M154.075928,345.599121 
	C157.639130,352.044617 163.354477,347.772186 167.728287,349.033630 
	C164.425400,343.356964 161.302505,337.989655 158.133423,332.542938 
	C165.969727,329.857513 169.314560,325.661652 168.748291,319.618683 
	C168.238739,314.180939 164.486465,309.553650 158.967636,309.242798 
	C150.324799,308.756012 141.634415,309.113678 132.671219,309.113678 
	C135.906815,313.412262 135.979919,344.301971 133.100632,348.786926 
	C137.769272,348.786926 142.467636,348.786926 145.723022,348.786926 
	C145.440796,343.378387 145.168350,338.157135 144.895889,332.935883 
	C145.439880,332.813080 145.983871,332.690277 146.527863,332.567444 
	C148.930328,336.686157 151.332779,340.804840 154.075928,345.599121 
M196.873764,324.144165 
	C196.873764,319.200623 196.873764,314.257111 196.873764,309.114319 
	C192.529938,309.114319 188.586456,309.114319 184.641403,309.125458 
	C187.916290,313.738342 187.951904,343.961212 184.803619,348.704895 
	C195.594864,348.704895 206.498550,348.704895 217.434479,348.704895 
	C218.023972,345.410370 218.550247,342.469208 219.076523,339.528015 
	C213.691620,348.268768 205.877625,349.020355 196.875595,347.523041 
	C196.875595,344.696014 196.941360,342.053131 196.860352,339.414703 
	C196.735794,335.358154 197.452133,331.664368 201.498627,329.725403 
	C205.610138,327.755310 209.491318,328.200409 213.886993,333.135162 
	C214.920303,329.563507 216.849167,326.503479 216.005386,324.934906 
	C214.850662,322.788269 211.475616,320.417328 209.257629,320.602509 
	C206.136826,320.863098 203.095993,323.208649 200.242691,325.013214 
	C199.035233,325.776855 198.391281,327.431549 196.875946,329.535492 
	C196.875946,327.276154 196.875946,326.153778 196.873764,324.144165 
M332.520111,353.466125 
	C334.556854,359.127716 338.943756,354.537018 341.531006,355.909698 
	C336.719849,347.568451 331.899475,339.211273 326.966248,330.658386 
	C324.582123,330.658386 321.811890,330.658386 319.274872,330.658386 
	C323.573395,338.052856 327.852264,345.413452 332.520111,353.466125 
M217.722351,314.184113 
	C217.389221,312.465790 217.056091,310.747467 216.726624,309.048035 
	C213.435638,309.048035 210.535782,309.048035 208.674820,309.048035 
	C210.854721,311.033539 213.452896,313.447876 216.146805,315.750183 
	C216.334152,315.910309 217.232605,315.238373 217.722351,314.184113 
z"/>
<path fill="#8D1A4E" opacity="1.000000" stroke="none" 
	d="
M110.844879,211.176926 
	C110.940186,211.530884 111.035500,211.884827 111.044891,212.894440 
	C113.630592,221.028381 116.302200,228.506699 118.978378,236.348495 
	C120.002083,240.106461 121.021202,243.500946 122.034744,247.272797 
	C125.336815,256.155182 130.580338,263.297241 137.787689,268.820435 
	C142.991653,272.808350 148.583557,276.290070 154.001221,279.998779 
	C154.000000,280.000000 153.998779,280.001892 153.624115,280.002197 
	C152.500107,280.000885 151.750778,279.999237 150.835876,279.750793 
	C150.113846,279.335571 149.557358,279.167175 148.878876,278.791992 
	C148.404831,278.601135 148.052811,278.617096 147.700775,278.633026 
	C148.133438,278.755768 148.566101,278.878510 149.163818,279.248413 
	C149.885101,279.664551 150.441330,279.833496 151.161896,280.316650 
	C166.045700,288.451782 181.673828,289.926208 197.937561,287.542053 
	C221.786880,284.045929 239.291611,268.116730 258.145325,255.566254 
	C269.727234,247.856461 278.194641,235.505997 288.207184,225.384354 
	C293.067322,220.471283 298.147888,215.757492 303.364502,211.224899 
	C305.522003,209.350281 308.462067,208.404007 310.762482,206.661041 
	C318.672760,200.667725 325.990814,193.735275 334.429321,188.643600 
	C341.971008,184.093079 350.731750,181.980850 359.652924,186.026062 
	C362.027649,187.102859 364.465302,188.040802 367.161011,189.217468 
	C369.232300,191.356735 371.016632,193.321014 373.075439,195.373077 
	C373.729675,195.448837 374.109467,195.436829 374.489227,195.424805 
	C374.489227,195.424805 374.540375,195.838959 374.506592,196.132782 
	C374.472809,196.426590 374.508148,196.642548 374.282440,196.914703 
	C374.387177,198.407501 374.717621,199.628143 375.257629,200.904175 
	C375.467163,200.959534 375.896484,201.019226 375.896484,201.019226 
	C375.736908,202.259491 375.577362,203.499771 375.417786,204.740036 
	C366.676788,190.144577 350.996368,184.407043 337.256866,192.730606 
	C326.560333,199.210724 317.154419,207.846100 307.308075,215.690796 
	C304.074585,218.266968 301.258453,221.367004 297.823792,224.710449 
	C295.586273,227.487534 293.776398,229.781647 291.615601,232.099487 
	C286.483093,236.600098 281.701508,241.076996 276.919891,245.553894 
	C268.177948,253.213440 259.818390,261.371490 250.616104,268.430969 
	C230.133072,284.144379 207.606033,294.911316 180.957855,294.281097 
	C154.973526,293.666534 135.605606,281.484680 122.070351,259.841858 
	C108.086243,237.481277 104.261421,212.882751 107.413452,185.997437 
	C107.689697,190.518341 107.854759,194.068756 108.144440,197.608963 
	C108.293571,199.431580 108.664642,201.236008 108.900826,203.821381 
	C109.179504,205.450577 109.492798,206.307037 109.806091,207.163513 
	C109.806091,207.163513 109.869827,207.575577 109.821526,208.127319 
	C110.130440,209.511688 110.487656,210.344299 110.844879,211.176926 
M300.587646,215.513687 
	C300.587646,215.513687 300.474579,215.581512 300.587646,215.513687 
z"/>
<path fill="#E5869F" opacity="1.000000" stroke="none" 
	d="
M374.613342,195.050476 
	C374.109467,195.436829 373.729675,195.448837 373.125366,194.989441 
	C369.092712,186.500854 364.755981,178.878326 356.357605,174.777344 
	C355.121490,174.173721 353.336792,174.693497 351.409668,174.693497 
	C351.020203,174.213928 350.278992,172.383865 349.279266,172.229599 
	C345.047150,171.576691 340.393555,170.223450 336.528931,171.334518 
	C328.463928,173.653183 320.361267,176.600006 313.104828,180.743591 
	C306.730652,184.383392 301.284332,189.783844 295.802521,194.814575 
	C289.676636,200.436401 284.257080,206.843811 278.002045,212.304428 
	C272.154083,217.409668 268.544586,225.130280 259.750824,227.047241 
	C256.775665,227.695770 254.415909,231.324249 251.851639,233.674606 
	C236.446686,247.794464 221.625351,262.437866 200.103683,267.676697 
	C188.139908,270.588928 176.420746,272.957336 164.118347,270.644958 
	C168.540268,270.644958 172.962189,270.644958 178.716156,270.644958 
	C169.845856,268.109375 162.257111,266.549072 155.153656,263.755035 
	C146.325470,260.282562 137.574326,256.406464 131.157364,248.770538 
	C127.377335,244.272430 123.053215,240.231522 118.973801,235.985001 
	C116.302200,228.506699 113.630592,221.028381 111.124893,213.157501 
	C114.350258,218.984283 116.936073,225.495499 120.555573,231.369797 
	C132.738708,251.142441 150.337982,263.068878 173.719543,264.568359 
	C189.893433,265.605530 205.248627,260.997986 218.360443,251.537384 
	C233.690552,240.476242 248.183304,228.254547 263.509369,216.122101 
	C266.020813,213.868439 268.062225,212.028976 270.411133,210.052277 
	C273.172485,207.615753 275.626373,205.316452 278.375366,202.916107 
	C279.534424,201.918594 280.398315,201.022141 281.568665,200.023193 
	C283.599976,198.269485 285.324799,196.618301 287.049622,194.967117 
	C296.938690,186.396103 306.173248,176.989807 318.257111,171.276718 
	C327.234039,167.032516 336.374634,163.811676 346.524261,165.445786 
	C360.335693,167.669418 367.074890,177.808960 372.731659,189.076675 
	C373.614655,190.835541 374.079346,192.804398 374.613342,195.050476 
z"/>
<path fill="#71DFC6" opacity="1.000000" stroke="none" 
	d="
M125.182312,217.993622 
	C125.536362,219.350693 125.890411,220.707764 126.507858,223.074432 
	C121.098412,216.432678 116.245636,202.307770 114.943497,193.597168 
	C109.743706,158.813538 134.728653,128.031265 170.839005,120.295189 
	C181.242004,118.066505 192.272583,118.767212 203.585938,118.528030 
	C211.192596,121.656479 218.479446,123.882439 225.191956,127.252396 
	C231.470718,130.404572 237.671600,134.162598 240.682800,140.902985 
	C233.262146,138.599640 226.211197,136.310287 219.707291,134.198547 
	C219.910309,134.144974 220.952591,133.869934 222.565338,133.444366 
	C203.135727,126.610008 185.048538,131.731918 166.964310,136.906754 
	C166.871033,136.471115 166.777756,136.035477 166.684479,135.599823 
	C174.096146,133.161530 181.507812,130.723236 188.915176,128.288315 
	C164.401352,129.479874 132.769043,141.296814 121.923103,183.940994 
	C121.923103,181.004044 121.923103,178.067078 121.923103,175.130127 
	C121.398338,175.140686 120.873566,175.151245 120.348801,175.161804 
	C120.348801,183.958206 119.772186,192.806427 120.556664,201.532303 
	C121.058372,207.112930 123.571136,212.512741 125.182312,217.993622 
z"/>
<path fill="#02C59A" opacity="1.000000" stroke="none" 
	d="
M131.106354,188.414124 
	C129.093018,193.674057 127.079689,198.933990 124.687523,204.281097 
	C124.200409,200.725296 123.841110,197.069595 124.025307,193.441467 
	C125.085030,172.567963 134.722351,156.719238 152.936172,146.609665 
	C173.245865,135.336746 195.081406,134.362808 217.128235,139.777252 
	C226.682693,142.123718 235.715958,146.592529 244.998260,150.350067 
	C245.025177,150.771622 245.039825,150.940445 245.038147,151.493805 
	C244.053040,157.761520 243.209671,158.479797 239.311493,156.676819 
	C222.642349,148.967072 205.527557,144.720169 186.807602,146.818359 
	C165.566208,149.199142 148.303162,157.600937 136.619293,175.852600 
	C134.183838,179.657089 132.913589,184.207474 131.106354,188.414124 
z"/>
<path fill="#41D4B3" opacity="1.000000" stroke="none" 
	d="
M244.985962,150.097321 
	C235.715958,146.592529 226.682693,142.123718 217.128235,139.777252 
	C195.081406,134.362808 173.245865,135.336746 152.936172,146.609665 
	C134.722351,156.719238 125.085030,172.567963 124.025307,193.441467 
	C123.841110,197.069595 124.200409,200.725296 124.606903,204.654190 
	C124.972321,208.982605 125.039528,213.025116 125.144524,217.530609 
	C123.571136,212.512741 121.058372,207.112930 120.556664,201.532303 
	C119.772186,192.806427 120.348801,183.958206 120.348801,175.161804 
	C120.873566,175.151245 121.398338,175.140686 121.923103,175.130127 
	C121.923103,178.067078 121.923103,181.004044 121.923103,183.940994 
	C132.769043,141.296814 164.401352,129.479874 188.915176,128.288315 
	C181.507812,130.723236 174.096146,133.161530 166.684479,135.599823 
	C166.777756,136.035477 166.871033,136.471115 166.964310,136.906754 
	C185.048538,131.731918 203.135727,126.610008 222.565338,133.444366 
	C220.952591,133.869934 219.910309,134.144974 219.707291,134.198547 
	C226.211197,136.310287 233.262146,138.599640 240.941284,141.049988 
	C242.370667,141.776367 243.171860,142.341751 244.084229,143.178894 
	C244.497238,143.949524 244.799072,144.448380 245.104889,145.218063 
	C245.119919,145.669098 245.130936,145.849335 245.102692,146.432678 
	C245.037598,147.922958 245.011780,149.010147 244.985962,150.097321 
z"/>
<path fill="#EF9B06" opacity="1.000000" stroke="none" 
	d="
M153.905579,345.261322 
	C151.332779,340.804840 148.930328,336.686157 146.527863,332.567444 
	C145.983871,332.690277 145.439880,332.813080 144.895889,332.935883 
	C145.168350,338.157135 145.440796,343.378387 145.723022,348.786926 
	C142.467636,348.786926 137.769272,348.786926 133.100632,348.786926 
	C135.979919,344.301971 135.906815,313.412262 132.671219,309.113678 
	C141.634415,309.113678 150.324799,308.756012 158.967636,309.242798 
	C164.486465,309.553650 168.238739,314.180939 168.748291,319.618683 
	C169.314560,325.661652 165.969727,329.857513 158.133423,332.542938 
	C161.302505,337.989655 164.425400,343.356964 167.728287,349.033630 
	C163.354477,347.772186 157.639130,352.044617 153.905579,345.261322 
M148.260620,309.944244 
	C147.181137,310.562866 145.188187,311.147766 145.163910,311.805359 
	C144.928162,318.191833 145.022202,324.590454 145.022202,330.918152 
	C153.879776,331.439209 158.133820,328.373138 158.786987,321.557556 
	C159.360153,315.576721 155.647415,311.123810 148.260620,309.944244 
z"/>
<path fill="#039F88" opacity="1.000000" stroke="none" 
	d="
M131.393463,188.211197 
	C132.913589,184.207474 134.183838,179.657089 136.619293,175.852600 
	C148.303162,157.600937 165.566208,149.199142 186.807602,146.818359 
	C205.527557,144.720169 222.642349,148.967072 239.311493,156.676819 
	C243.209671,158.479797 244.053040,157.761520 245.326935,151.596649 
	C246.771347,152.188171 247.910599,153.061417 249.031494,154.339294 
	C248.672562,156.814575 248.332001,158.885223 247.745346,160.967056 
	C247.499268,160.978226 247.007904,161.014069 246.692688,160.874146 
	C244.637161,160.603424 242.895432,160.350433 241.156891,160.370789 
	C238.616745,160.400497 235.979141,161.133102 233.562027,160.657181 
	C229.291397,159.816376 225.155640,158.290497 220.592468,157.043945 
	C219.479202,157.031326 218.736923,157.026123 217.915085,156.630737 
	C217.342621,155.855759 216.855240,155.143860 216.355942,155.135422 
	C209.276230,155.015366 202.194901,154.990509 195.113953,154.943161 
	C193.449692,154.932037 190.437729,155.273224 190.329956,154.858612 
	C189.267853,150.772507 186.569794,153.086319 184.996857,153.616638 
	C175.644669,156.769714 166.227615,159.839890 157.194992,163.771133 
	C154.083878,165.125183 152.014252,168.872208 149.468842,171.526062 
	C149.468842,171.526062 149.316711,171.477310 149.051544,171.416473 
	C148.565567,171.678650 148.344742,172.001663 148.123917,172.324677 
	C142.642792,177.552536 137.161667,182.780411 131.393463,188.211197 
z"/>
<path fill="#F6D08C" opacity="1.000000" stroke="none" 
	d="
M179.751373,253.596359 
	C186.461273,249.113129 193.460037,245.003128 199.826477,240.076065 
	C218.278732,225.795715 234.463013,209.189560 249.255676,190.420822 
	C250.162704,189.434174 250.636810,188.830338 251.411636,188.064575 
	C254.849991,183.667755 257.987640,179.432892 261.419189,175.027191 
	C263.873749,171.592651 266.034393,168.328949 268.439240,164.955032 
	C269.255219,163.840393 269.826996,162.835983 270.398804,161.831573 
	C276.363495,154.378632 283.406647,148.729935 293.635040,150.139786 
	C298.152069,150.762375 302.534882,152.522491 306.908600,153.976791 
	C311.599487,155.536545 316.208038,157.343857 321.566406,159.304276 
	C318.103088,160.170380 315.377411,160.852020 312.220825,161.282410 
	C307.297211,159.107437 302.883728,156.961472 298.289093,155.323578 
	C293.851593,153.741714 284.145172,156.142365 283.002441,161.002655 
	C283.000000,161.000000 283.004150,161.004578 282.639160,160.992645 
	C279.483765,159.921249 277.291046,160.532333 275.446320,163.005310 
	C271.806488,167.884827 267.936310,172.594193 264.365112,177.521561 
	C263.770325,178.342178 264.204834,179.908768 264.129822,181.486511 
	C260.373260,186.399612 256.524109,190.861801 252.990875,195.561478 
	C251.601791,197.409149 250.919022,199.787857 249.957275,201.960938 
	C249.999954,201.997147 249.923965,201.914673 249.561905,201.916214 
	C248.178009,202.365952 246.938217,202.580612 246.168533,203.298981 
	C239.570236,209.457413 233.034470,215.683685 226.548187,221.960144 
	C225.777603,222.705826 225.416382,223.874527 224.750031,225.061066 
	C224.430527,225.539032 224.171661,225.728165 223.514313,225.860168 
	C221.806824,226.945908 220.443115,228.013916 218.931519,229.303772 
	C218.458099,229.948212 218.132553,230.370789 217.470245,230.827057 
	C216.391693,231.540741 215.649918,232.220734 214.763397,233.169510 
	C214.055771,234.265900 213.492889,235.093506 212.940887,235.935516 
	C212.951782,235.949951 212.962112,235.953354 212.598206,235.893234 
	C208.082169,238.549103 203.930054,241.265106 199.489822,244.148254 
	C192.718262,247.409088 186.234818,250.502731 179.751373,253.596359 
z"/>
<path fill="#F6CE86" opacity="1.000000" stroke="none" 
	d="
M291.074890,269.746338 
	C283.344116,281.709320 271.705780,286.121002 258.130798,286.854431 
	C251.196228,287.229095 244.267410,287.710693 236.438660,288.200043 
	C242.620483,284.920807 247.989746,282.072571 253.965637,279.420044 
	C257.529327,279.490051 261.892334,282.504120 262.458374,276.154785 
	C263.545532,276.027863 264.276794,275.989960 265.013641,276.343872 
	C266.329498,277.331146 268.076630,278.787964 268.878632,278.381195 
	C273.833923,275.868134 279.625275,273.881348 283.173187,269.947052 
	C290.761139,261.532684 297.181610,252.060974 304.008789,242.968643 
	C305.442871,241.058746 306.569031,238.917633 308.073639,236.722794 
	C308.548187,236.050751 308.786194,235.538986 309.372803,234.994919 
	C311.189026,233.018280 312.656616,231.073929 314.175049,228.847839 
	C314.266235,228.379517 314.306580,228.192963 314.491211,227.930206 
	C314.815155,227.716980 314.936920,227.540115 315.286926,227.124512 
	C315.740814,226.296204 315.908600,225.666779 316.042694,225.018875 
	C316.008972,225.000381 316.050537,225.065094 316.338501,225.049774 
	C316.772156,224.705704 316.917816,224.376968 317.032288,224.025116 
	C317.001099,224.002029 317.048920,224.063248 317.335266,224.045731 
	C317.768402,223.700851 317.915192,223.373505 318.033325,223.054626 
	C318.004700,223.063126 318.063599,223.076553 318.426453,223.136932 
	C320.884399,220.820358 322.979431,218.443405 325.070068,216.038864 
	C325.065613,216.011261 325.049713,216.062332 325.339722,216.051514 
	C325.775238,215.711288 325.920715,215.381882 326.033722,215.027145 
	C326.001221,215.001831 326.052307,215.066498 326.343567,215.056778 
	C326.779602,214.716324 326.924347,214.385574 327.032532,214.036194 
	C326.995972,214.017563 327.044159,214.084030 327.362122,214.159119 
	C328.130737,213.831619 328.581360,213.429047 329.018005,213.011810 
	C329.004028,212.997147 329.016174,213.034912 329.282074,212.983459 
	C329.712341,212.628311 329.876678,212.324615 330.020142,212.010193 
	C329.999237,211.999466 330.020660,212.041336 330.288361,211.991516 
	C330.720886,211.636566 330.885681,211.331451 331.027466,211.011627 
	C331.004425,210.996933 331.021027,211.048935 331.320618,210.989838 
	C331.892426,210.629089 332.164581,210.327469 332.639893,210.006256 
	C333.104248,209.908676 333.369507,209.848480 333.977081,209.766403 
	C334.910736,208.860382 335.506104,207.994019 336.398682,206.965027 
	C339.467682,205.145050 342.239471,203.487686 345.011292,201.830322 
	C338.470276,208.550323 331.615997,214.998184 325.476257,222.066727 
	C319.318268,229.156265 313.872925,236.864853 307.693481,244.767456 
	C305.824493,247.426422 304.377319,249.620056 302.641602,251.997437 
	C300.020203,255.794342 297.687347,259.407501 295.144073,263.264587 
	C293.647400,265.587799 292.361145,267.667053 291.074890,269.746338 
z"/>
<path fill="#EF9B06" opacity="1.000000" stroke="none" 
	d="
M236.458023,312.773682 
	C235.868790,311.668030 235.279556,310.562378 234.401520,308.914856 
	C238.315598,308.914856 242.071884,308.639893 245.752014,309.049408 
	C247.236252,309.214600 248.924973,310.603638 249.886307,311.904480 
	C255.701431,319.773132 261.332977,327.777435 267.147186,335.905945 
	C270.468384,323.808899 268.214111,314.382629 260.593964,309.176575 
	C264.341522,309.176575 267.714020,309.176575 270.590912,309.176575 
	C270.090698,311.114410 269.169891,313.166992 269.096954,315.249298 
	C268.881714,321.392944 269.204407,327.557556 268.925415,333.696198 
	C268.712952,338.371246 269.679962,342.307770 272.580231,346.167236 
	C274.413666,348.606995 274.872803,352.079437 276.201965,355.798279 
	C273.695648,355.798279 272.202942,356.260468 271.596832,355.722961 
	C267.787811,352.344757 263.666992,349.134766 260.600311,345.139282 
	C253.218994,335.522308 246.361954,325.502991 239.065704,315.060486 
	C238.044662,313.907898 237.251343,313.340790 236.458023,312.773682 
z"/>
<path fill="#EF9C09" opacity="1.000000" stroke="none" 
	d="
M196.874847,324.587799 
	C196.875946,326.153778 196.875946,327.276154 196.875946,329.535492 
	C198.391281,327.431549 199.035233,325.776855 200.242691,325.013214 
	C203.095993,323.208649 206.136826,320.863098 209.257629,320.602509 
	C211.475616,320.417328 214.850662,322.788269 216.005386,324.934906 
	C216.849167,326.503479 214.920303,329.563507 213.886993,333.135162 
	C209.491318,328.200409 205.610138,327.755310 201.498627,329.725403 
	C197.452133,331.664368 196.735794,335.358154 196.860352,339.414703 
	C196.941360,342.053131 196.875595,344.696014 196.875595,347.523041 
	C205.877625,349.020355 213.691620,348.268768 219.076523,339.528015 
	C218.550247,342.469208 218.023972,345.410370 217.434479,348.704895 
	C206.498550,348.704895 195.594864,348.704895 184.803619,348.704895 
	C187.951904,343.961212 187.916290,313.738342 184.642181,309.119873 
	C188.586456,309.114319 192.529938,309.114319 196.873764,309.114319 
	C196.873764,314.257111 196.873764,319.200623 196.874847,324.587799 
z"/>
<path fill="#FCFBF8" opacity="1.000000" stroke="none" 
	d="
M116.108788,321.996124 
	C116.590721,322.953888 117.543144,323.957733 117.454819,324.859650 
	C117.280968,326.634949 116.529297,328.353668 115.554764,330.547211 
	C111.353325,330.998627 107.613762,330.998627 105.255516,330.998627 
	C105.499443,336.554901 105.729645,341.798523 105.959839,347.042114 
	C105.959839,347.042114 105.985733,346.975250 105.598129,346.933289 
	C100.339760,347.643433 96.850380,345.627197 94.383850,341.518951 
	C89.499191,333.382996 90.801888,318.290192 97.403839,310.986420 
	C101.198097,309.337952 104.259567,309.431915 106.341553,313.019226 
	C108.466057,316.679840 107.044189,320.394073 101.469444,324.957550 
	C103.293938,326.384430 105.088753,328.921722 106.634209,328.777954 
	C110.786362,328.391785 115.048615,327.151489 116.108788,321.996124 
z"/>
<path fill="#B17215" opacity="1.000000" stroke="none" 
	d="
M345.181335,201.716888 
	C342.239471,203.487686 339.467682,205.145050 336.078552,207.020660 
	C334.853729,208.094620 334.246246,208.950333 333.638794,209.806061 
	C333.369507,209.848480 333.104248,209.908676 332.322449,210.054077 
	C331.541595,210.430649 331.281311,210.739792 331.021027,211.048935 
	C331.021027,211.048935 331.004425,210.996933 330.775635,211.085480 
	C330.371460,211.463135 330.196045,211.752228 330.020660,212.041336 
	C330.020660,212.041336 329.999237,211.999466 329.767334,212.081238 
	C329.362366,212.453659 329.189270,212.744278 329.016174,213.034912 
	C329.016174,213.034912 329.004028,212.997147 328.705383,212.992233 
	C327.952545,213.352890 327.498352,213.718460 327.044159,214.084045 
	C327.044159,214.084030 326.995972,214.017563 326.784851,214.112457 
	C326.399902,214.493744 326.226105,214.780121 326.052307,215.066498 
	C326.052307,215.066498 326.001221,215.001831 325.784790,215.101471 
	C325.395447,215.488174 325.222595,215.775253 325.049713,216.062332 
	C325.049713,216.062332 325.065613,216.011261 324.718658,216.034729 
	C322.269012,218.397659 320.166321,220.737106 318.063599,223.076569 
	C318.063599,223.076553 318.004700,223.063126 317.784271,223.129700 
	C317.392181,223.485260 317.220551,223.774246 317.048920,224.063248 
	C317.048920,224.063248 317.001099,224.002029 316.783630,224.100586 
	C316.394257,224.487778 316.222412,224.776443 316.050537,225.065094 
	C316.050537,225.065094 316.008972,225.000381 315.737793,225.178482 
	C315.311340,226.012192 315.156067,226.667801 315.000793,227.323410 
	C314.936920,227.540115 314.815155,227.716980 314.081696,227.902237 
	C310.414551,228.181152 308.881134,229.843231 308.980286,232.984772 
	C308.987549,232.991699 308.961853,232.970261 308.609985,232.980225 
	C306.495789,235.316849 304.733490,237.643509 302.982239,239.985397 
	C302.993225,240.000610 302.962585,239.972366 302.612427,239.978470 
	C299.830719,243.312286 297.399200,246.640015 294.969543,249.974579 
	C294.971405,249.981445 294.943848,249.959946 294.562622,249.941406 
	C289.024200,250.115875 288.034454,254.897964 285.732880,257.976776 
	C280.458618,265.032074 273.801422,269.507965 265.084808,270.873260 
	C270.362030,265.766266 275.639252,260.659302 281.336304,255.127228 
	C282.225616,254.184387 282.695007,253.666611 283.115662,253.066086 
	C283.066895,252.983337 283.144104,253.157944 283.434753,253.037933 
	C284.853973,251.702133 285.982574,250.486359 287.411499,249.105331 
	C289.854828,246.003204 291.997803,243.066299 294.500854,240.105545 
	C297.285858,238.042496 299.710815,236.003311 302.135773,233.964111 
	C311.761383,224.842804 321.143677,215.444000 331.107635,206.708679 
	C336.706329,201.800369 342.835510,196.946640 351.863037,198.250275 
	C350.211212,199.005905 349.037567,199.542770 347.287750,200.204468 
	C346.493408,200.613480 346.275269,200.897690 346.057129,201.181900 
	C345.815979,201.312500 345.580719,201.453018 345.181335,201.716888 
z"/>
<path fill="#B97613" opacity="1.000000" stroke="none" 
	d="
M257.809875,204.875854 
	C255.855560,206.546844 253.901276,208.217834 251.284195,210.001526 
	C250.119568,210.799973 249.617722,211.485718 249.115875,212.171448 
	C249.115891,212.171463 249.079575,212.082336 248.865021,212.165131 
	C248.453568,212.545944 248.256668,212.843948 248.059784,213.141968 
	C248.059784,213.141968 248.048676,213.048874 247.840332,213.143204 
	C247.435577,213.528473 247.239166,213.819412 247.042755,214.110336 
	C247.042740,214.110336 247.032394,214.032471 246.824799,214.127777 
	C246.419083,214.501648 246.220932,214.780228 246.022797,215.058807 
	C246.022797,215.058807 246.003235,215.000626 245.666901,215.034729 
	C243.575729,216.798065 241.820862,218.527283 240.065994,220.256500 
	C240.042099,220.573273 239.889313,220.805099 238.985321,220.980560 
	C237.272751,221.019623 236.182541,221.030121 235.207901,220.730774 
	C239.677887,216.078552 244.020020,211.723770 248.389160,207.396271 
	C258.231140,197.648102 268.643402,188.400589 277.740021,178.001495 
	C283.772736,171.105026 290.006622,167.008972 299.218781,168.220245 
	C293.558441,172.939728 287.898102,177.659225 281.776886,182.796112 
	C280.106506,184.380539 278.897003,185.547546 277.400635,186.806427 
	C276.412506,187.584213 275.711182,188.270111 274.720581,189.063370 
	C273.601959,190.053131 272.772614,190.935516 271.625275,191.942764 
	C266.808136,196.337051 262.308990,200.606461 257.809875,204.875854 
z"/>
<path fill="#095767" opacity="1.000000" stroke="none" 
	d="
M261.125305,175.198013 
	C257.987640,179.432892 254.849991,183.667755 251.385864,187.670410 
	C251.339157,186.506683 251.514175,185.526901 251.917526,184.652435 
	C253.360809,181.523499 249.976990,174.217346 246.615585,174.233795 
	C242.750458,174.252701 238.890366,175.299072 235.028076,175.899155 
	C225.947495,171.590393 216.866928,167.281631 207.754807,162.613144 
	C216.453491,161.469009 224.535797,164.050262 232.678528,166.713745 
	C235.211929,167.542419 238.212418,166.943161 241.249146,166.997238 
	C241.665924,166.998337 241.832642,166.999786 242.200012,167.275803 
	C250.370575,172.030884 250.627197,171.969604 253.263153,164.995712 
	C253.686188,164.960236 253.855408,164.946228 254.324829,165.094177 
	C256.791809,168.570099 258.958557,171.884048 261.125305,175.198013 
z"/>
<path fill="#EC9804" opacity="1.000000" stroke="none" 
	d="
M299.557251,168.135681 
	C290.006622,167.008972 283.772736,171.105026 277.740021,178.001495 
	C268.643402,188.400589 258.231140,197.648102 248.389160,207.396271 
	C244.020020,211.723770 239.677887,216.078552 234.894318,220.866653 
	C229.457214,225.232544 224.539841,229.277679 219.393692,233.007111 
	C217.519516,234.365356 215.100449,234.971695 212.929993,235.921082 
	C213.492889,235.093506 214.055771,234.265900 215.101013,233.187607 
	C216.324585,232.222382 217.065781,231.507858 217.806992,230.793335 
	C218.132553,230.370789 218.458099,229.948212 219.280045,229.301636 
	C221.136993,227.999237 222.497543,226.920837 223.858093,225.842438 
	C224.171661,225.728165 224.430527,225.539032 225.107559,225.088898 
	C233.694946,217.240067 241.809448,209.577362 249.923950,201.914673 
	C249.923965,201.914673 249.999954,201.997147 250.282684,201.867889 
	C258.798767,192.669662 267.235321,183.774734 275.200928,174.476410 
	C281.531586,167.086624 288.988159,162.725052 299.142517,163.361115 
	C300.973297,163.409805 302.552216,163.212021 304.131134,163.014252 
	C302.719299,164.693192 301.307495,166.372147 299.557251,168.135681 
z"/>
<path fill="#EF9B06" opacity="1.000000" stroke="none" 
	d="
M97.024307,311.063721 
	C90.801888,318.290192 89.499191,333.382996 94.383850,341.518951 
	C96.850380,345.627197 100.339760,347.643433 105.633667,346.928436 
	C98.649956,351.501068 88.586166,348.110992 84.056702,339.554657 
	C77.615555,327.387115 83.158234,313.553894 96.532928,309.843292 
	C96.976822,310.501953 97.000565,310.782837 97.024307,311.063721 
z"/>
<path fill="#06827C" opacity="1.000000" stroke="none" 
	d="
M149.793945,171.402328 
	C152.014252,168.872208 154.083878,165.125183 157.194992,163.771133 
	C166.227615,159.839890 175.644669,156.769714 184.996857,153.616638 
	C186.569794,153.086319 189.267853,150.772507 190.329956,154.858612 
	C190.437729,155.273224 193.449692,154.932037 195.113953,154.943161 
	C202.194901,154.990509 209.276230,155.015366 216.355942,155.135422 
	C216.855240,155.143860 217.342621,155.855759 217.664017,156.889435 
	C213.712997,157.358505 209.847748,156.606537 206.177643,157.156586 
	C202.354736,157.729507 198.720108,159.558716 195.003159,160.838623 
	C179.115631,160.336807 164.006714,163.182465 149.793945,171.402328 
z"/>
<path fill="#41D4B3" opacity="1.000000" stroke="none" 
	d="
M363.957947,243.413727 
	C366.431854,240.137299 368.905762,236.860870 371.379669,233.584442 
	C371.864655,233.815582 372.349640,234.046722 372.834625,234.277863 
	C370.108856,239.864746 367.383087,245.451630 364.351379,250.949768 
	C363.022339,251.260437 361.635864,251.363602 361.031677,252.104584 
	C354.192749,260.492188 347.298798,267.839233 335.878448,271.164093 
	C327.175049,273.697998 318.653809,274.154480 309.665955,275.006531 
	C308.527863,274.421539 307.692627,273.877197 306.888794,272.930664 
	C306.937225,271.731842 306.954254,270.935211 307.400024,270.083984 
	C314.536102,270.011963 321.466980,271.068481 327.899261,269.729584 
	C337.952576,267.636932 347.140503,263.020142 354.025299,254.476089 
	C355.051697,253.481308 355.999054,252.783371 357.186646,251.968109 
	C357.613708,251.557266 357.800507,251.263733 357.991699,250.988144 
	C357.996094,251.006073 357.963715,250.987976 358.281677,250.865387 
	C360.385742,248.299759 362.171844,245.856735 363.957947,243.413727 
z"/>
<path fill="#DC5B7E" opacity="1.000000" stroke="none" 
	d="
M379.002594,182.935410 
	C387.070068,188.116302 391.010315,196.154495 393.116791,204.955963 
	C397.730042,224.231583 395.264435,241.896210 379.347351,255.679153 
	C380.021393,253.642578 381.033539,251.904205 382.261902,250.019562 
	C382.658417,249.581131 382.838654,249.288940 383.007446,248.997223 
	C382.996033,248.997726 383.002533,249.019836 383.251343,248.852539 
	C383.683319,248.128159 383.866486,247.571045 384.024628,247.007263 
	C383.999603,247.000565 384.031555,247.041428 384.283905,246.876526 
	C384.707062,246.146439 384.877899,245.581223 385.026276,245.005554 
	C385.003845,244.995087 385.021271,245.041412 385.253784,244.935379 
	C385.653717,244.539093 385.821167,244.248840 386.132385,243.681763 
	C386.528046,242.626358 386.779968,241.847748 387.301575,240.812790 
	C390.830811,232.207748 391.932343,223.441727 390.840668,214.688995 
	C389.742615,205.884903 388.171204,196.975861 382.001343,189.470276 
	C380.931030,188.261368 379.920135,187.399475 378.909241,186.537567 
	C378.909241,186.537567 378.728241,186.691757 378.914490,186.429108 
	C379.067993,185.089447 379.035309,184.012436 379.002594,182.935410 
z"/>
<path fill="#71DFC6" opacity="1.000000" stroke="none" 
	d="
M309.968842,275.047180 
	C318.653809,274.154480 327.175049,273.697998 335.878448,271.164093 
	C347.298798,267.839233 354.192749,260.492188 361.031677,252.104584 
	C361.635864,251.363602 363.022339,251.260437 364.086731,251.192993 
	C355.357391,266.420502 342.755981,276.131836 325.063538,279.618988 
	C321.952332,279.237305 319.385162,279.578918 317.141754,278.880493 
	C314.599396,278.088959 312.347198,276.365479 309.968842,275.047180 
z"/>
<path fill="#0EB596" opacity="1.000000" stroke="none" 
	d="
M145.079407,187.113846 
	C147.383194,185.221054 149.686996,183.328278 151.990799,181.435486 
	C152.371933,181.724670 152.753067,182.013840 153.134201,182.303024 
	C138.922409,203.092209 136.756027,224.392715 149.917450,246.702438 
	C149.958572,247.062698 149.977814,247.110306 149.977814,247.110306 
	C148.416016,245.944794 146.854218,244.779282 145.163589,242.948425 
	C142.472595,234.705048 138.469864,227.259445 137.757584,219.511353 
	C137.059738,211.920303 138.986237,203.799927 141.253723,196.367294 
	C142.150894,193.426453 145.156296,190.835602 145.079407,187.113846 
z"/>
<path fill="#A86E1E" opacity="1.000000" stroke="none" 
	d="
M212.940887,235.935516 
	C215.100449,234.971695 217.519516,234.365356 219.393692,233.007111 
	C224.539841,229.277679 229.457214,225.232544 234.778717,221.176483 
	C236.182541,221.030121 237.272751,221.019623 238.774231,221.026932 
	C220.794144,237.117432 201.760666,252.039017 177.090469,256.856201 
	C176.863068,256.458679 176.635651,256.061127 176.408249,255.663605 
	C177.333633,255.107025 178.259003,254.550446 179.467880,253.795120 
	C186.234818,250.502731 192.718262,247.409088 199.898010,244.173950 
	C205.656525,242.777802 210.180206,240.698776 212.962112,235.953354 
	C212.962112,235.953354 212.951782,235.949951 212.940887,235.935516 
z"/>
<path fill="#F0A217" opacity="1.000000" stroke="none" 
	d="
M296.133514,344.564545 
	C295.486511,348.240448 294.839478,351.916351 294.145447,355.859253 
	C292.144623,355.859253 289.887573,355.859253 287.732544,355.859253 
	C287.732544,347.442596 287.732544,339.144379 287.732544,330.633362 
	C293.943024,330.633362 300.204620,330.633362 306.628723,330.633362 
	C306.529846,331.778198 306.430603,332.926788 306.440674,332.810211 
	C302.992859,332.142517 299.313538,331.429962 294.690125,330.534607 
	C294.893158,335.061066 295.046021,338.468842 295.627838,342.435059 
	C296.082367,343.517212 296.107941,344.040894 296.133514,344.564545 
z"/>
<path fill="#EF9C09" opacity="1.000000" stroke="none" 
	d="
M332.325623,353.120117 
	C327.852264,345.413452 323.573395,338.052856 319.274872,330.658386 
	C321.811890,330.658386 324.582123,330.658386 326.966248,330.658386 
	C331.899475,339.211273 336.719849,347.568451 341.531006,355.909698 
	C338.943756,354.537018 334.556854,359.127716 332.325623,353.120117 
z"/>
<path fill="#B22656" opacity="1.000000" stroke="none" 
	d="
M382.045685,250.165817 
	C381.033539,251.904205 380.021393,253.642578 379.007843,255.726013 
	C378.914612,256.405945 378.710815,256.645691 377.864258,256.859985 
	C376.883331,257.281036 376.433258,257.632385 375.983185,257.983765 
	C374.894623,258.511932 373.806061,259.040100 371.456543,260.180023 
	C389.059784,236.379150 390.523560,212.458267 378.859375,186.949677 
	C379.920135,187.399475 380.931030,188.261368 382.011383,189.860138 
	C382.161041,190.917999 382.201874,191.255280 382.327087,191.557648 
	C387.194489,203.314377 390.328308,215.304398 388.102783,228.221802 
	C387.375946,232.440521 387.368378,236.783173 387.031860,241.069138 
	C386.779968,241.847748 386.528046,242.626358 385.911316,243.803101 
	C385.371429,244.481308 385.196350,244.761353 385.021271,245.041412 
	C385.021271,245.041412 385.003845,244.995087 384.764160,245.162109 
	C384.360168,245.899887 384.195862,246.470657 384.031555,247.041428 
	C384.031555,247.041428 383.999603,247.000565 383.763855,247.162643 
	C383.352936,247.889755 383.177734,248.454803 383.002533,249.019836 
	C383.002533,249.019836 382.996033,248.997726 382.770325,249.119781 
	C382.378326,249.549835 382.212006,249.857834 382.045685,250.165817 
z"/>
<path fill="#06686F" opacity="1.000000" stroke="none" 
	d="
M195.405029,160.921448 
	C198.720108,159.558716 202.354736,157.729507 206.177643,157.156586 
	C209.847748,156.606537 213.712997,157.358505 217.743561,157.279633 
	C218.736923,157.026123 219.479202,157.031326 220.666809,157.394318 
	C222.675980,158.524429 224.222992,159.333328 225.806763,160.062363 
	C230.863510,162.390060 235.933929,164.688095 240.999069,166.997589 
	C238.212418,166.943161 235.211929,167.542419 232.678528,166.713745 
	C224.535797,164.050262 216.453491,161.469009 207.400452,162.479706 
	C203.320724,162.138763 199.563828,161.571518 195.405029,160.921448 
z"/>
<path fill="#4FD7B9" opacity="1.000000" stroke="none" 
	d="
M144.751572,187.195999 
	C145.156296,190.835602 142.150894,193.426453 141.253723,196.367294 
	C138.986237,203.799927 137.059738,211.920303 137.757584,219.511353 
	C138.469864,227.259445 142.472595,234.705048 145.009430,242.662964 
	C138.151276,238.070343 135.918457,230.637100 134.719147,222.898605 
	C132.668243,209.665039 135.270523,197.538208 144.751572,187.195999 
z"/>
<path fill="#EF9D0B" opacity="1.000000" stroke="none" 
	d="
M97.403839,310.986420 
	C97.000565,310.782837 96.976822,310.501953 96.920456,309.798889 
	C108.509811,307.890747 114.701843,311.731323 116.040771,321.605072 
	C115.048615,327.151489 110.786362,328.391785 106.634209,328.777954 
	C105.088753,328.921722 103.293938,326.384430 101.469444,324.957550 
	C107.044189,320.394073 108.466057,316.679840 106.341553,313.019226 
	C104.259567,309.431915 101.198097,309.337952 97.403839,310.986420 
z"/>
<path fill="#EC9804" opacity="1.000000" stroke="none" 
	d="
M367.822540,331.977081 
	C367.822540,339.835663 367.822540,347.694244 367.822540,355.792847 
	C366.008606,355.792847 363.419830,355.792847 361.271851,355.792847 
	C361.271851,348.140198 361.271851,340.521210 361.480347,332.290955 
	C361.790955,331.368958 361.893097,331.058197 361.995239,330.747437 
	C363.386047,330.714722 364.776825,330.681976 366.636169,330.944855 
	C367.343994,331.485992 367.583282,331.731537 367.822540,331.977081 
z"/>
<path fill="#94E6D4" opacity="1.000000" stroke="none" 
	d="
M243.973053,142.907135 
	C243.171860,142.341751 242.370667,141.776367 241.311005,141.063980 
	C237.671600,134.162598 231.470718,130.404572 225.191956,127.252396 
	C218.479446,123.882439 211.192596,121.656479 204.047058,118.587753 
	C212.109009,120.116005 220.362976,121.696793 228.416275,123.984138 
	C232.344955,125.099983 235.899506,127.533188 239.577026,129.844864 
	C241.011459,134.515472 242.492264,138.711304 243.973053,142.907135 
z"/>
<path fill="#E89608" opacity="1.000000" stroke="none" 
	d="
M264.783508,271.024597 
	C273.801422,269.507965 280.458618,265.032074 285.732880,257.976776 
	C288.034454,254.897964 289.024200,250.115875 294.554962,250.293915 
	C287.660583,262.295319 279.319550,272.655884 265.008026,275.952026 
	C264.276794,275.989960 263.545532,276.027863 262.127502,276.077545 
	C260.937408,275.702393 260.434113,275.315460 259.930786,274.928497 
	C261.447937,273.677612 262.965088,272.426758 264.783508,271.024597 
z"/>
<path fill="#08415D" opacity="1.000000" stroke="none" 
	d="
M235.247070,176.153641 
	C238.890366,175.299072 242.750458,174.252701 246.615585,174.233795 
	C249.976990,174.217346 253.360809,181.523499 251.917526,184.652435 
	C251.514175,185.526901 251.339157,186.506683 251.085175,187.832336 
	C250.636810,188.830338 250.162704,189.434174 249.408127,190.124237 
	C244.573792,185.609680 240.019928,181.008911 235.247070,176.153641 
z"/>
<path fill="#EF9B06" opacity="1.000000" stroke="none" 
	d="
M106.317566,347.152344 
	C105.729645,341.798523 105.499443,336.554901 105.255516,330.998627 
	C107.613762,330.998627 111.353325,330.998627 115.548798,330.925293 
	C116.661606,330.949860 117.318512,331.047729 117.948822,331.141663 
	C115.266060,337.259247 114.470589,344.714813 106.317566,347.152344 
z"/>
<path fill="#3E6880" opacity="1.000000" stroke="none" 
	d="
M270.231812,161.511932 
	C269.826996,162.835983 269.255219,163.840393 268.081909,164.899841 
	C265.831177,163.051331 264.200226,161.131546 262.528168,159.248291 
	C260.373108,156.821030 258.185089,154.423050 255.983582,151.716721 
	C255.652603,150.945404 255.349258,150.469833 255.028412,149.597107 
	C254.324905,146.406830 253.638885,143.613724 252.952866,140.820618 
	C258.656860,147.611176 264.360840,154.401733 270.231812,161.511932 
z"/>
<path fill="#F6C670" opacity="1.000000" stroke="none" 
	d="
M304.421448,163.206161 
	C302.552216,163.212021 300.973297,163.409805 299.175049,162.929321 
	C297.951385,161.164749 296.880493,159.096832 295.953979,159.159607 
	C291.615845,159.453522 287.317474,160.334244 283.004883,161.005310 
	C284.145172,156.142365 293.851593,153.741714 298.289093,155.323578 
	C302.883728,156.961472 307.297211,159.107437 311.853638,161.352921 
	C309.515442,162.249161 307.113617,162.823624 304.421448,163.206161 
z"/>
<path fill="#0E3357" opacity="1.000000" stroke="none" 
	d="
M258.018890,205.169250 
	C262.308990,200.606461 266.808136,196.337051 271.666870,192.298492 
	C272.695190,194.034225 273.363892,195.539093 274.032806,197.273621 
	C274.032990,197.503265 274.036987,197.962540 273.722290,198.117630 
	C271.637604,201.140823 265.731964,200.607925 266.740112,206.154160 
	C264.954681,208.208313 263.473328,210.119019 261.991974,212.029709 
	C260.737274,209.840683 259.482605,207.651657 258.018890,205.169250 
z"/>
<path fill="#0E3357" opacity="1.000000" stroke="none" 
	d="
M277.016724,245.921722 
	C281.701508,241.076996 286.483093,236.600098 291.624603,232.470642 
	C292.284912,234.508255 292.585327,236.198456 292.523468,237.917358 
	C287.765381,238.258438 286.472534,241.716003 284.672211,245.187164 
	C283.937714,247.967911 283.540924,250.562927 283.144104,253.157944 
	C283.144104,253.157944 283.066895,252.983337 282.736389,253.022964 
	C281.899750,253.057053 281.393616,253.051498 280.887482,253.045959 
	C279.629486,250.793823 278.371521,248.541687 277.016724,245.921722 
z"/>
<path fill="#3E6880" opacity="1.000000" stroke="none" 
	d="
M292.885712,237.888641 
	C292.585327,236.198456 292.284912,234.508255 291.975525,232.446930 
	C293.776398,229.781647 295.586273,227.487534 297.689850,225.011780 
	C299.264496,227.655548 300.545410,230.480927 301.981079,233.635193 
	C299.710815,236.003311 297.285858,238.042496 294.440674,239.774841 
	C293.642212,238.941528 293.263947,238.415085 292.885712,237.888641 
z"/>
<path fill="#3E6880" opacity="1.000000" stroke="none" 
	d="
M277.687500,186.714539 
	C278.897003,185.547546 280.106506,184.380539 281.604248,183.086472 
	C283.508850,186.743820 285.125183,190.528229 286.895569,194.639877 
	C285.324799,196.618301 283.599976,198.269485 281.260925,199.833862 
	C279.997040,197.833221 278.277771,194.734283 278.871643,194.198334 
	C282.670685,190.769730 280.207489,188.842407 277.687500,186.714539 
z"/>
<path fill="#095767" opacity="1.000000" stroke="none" 
	d="
M317.973236,251.999695 
	C322.056793,253.329041 326.140350,254.658401 330.279022,256.341095 
	C325.477997,256.591919 320.620880,256.403748 315.766632,256.461609 
	C314.835480,256.472717 313.915833,257.451019 312.617493,257.986694 
	C311.496918,257.996674 310.749664,258.003052 309.833588,257.751465 
	C308.760986,256.989685 307.857239,256.485901 307.122864,255.670990 
	C310.852570,254.239822 314.412903,253.119751 317.973236,251.999695 
z"/>
<path fill="#0E3357" opacity="1.000000" stroke="none" 
	d="
M291.375916,269.908569 
	C292.361145,267.667053 293.647400,265.587799 295.457275,263.312927 
	C297.356628,264.463348 298.732361,265.809357 300.096252,267.568787 
	C300.707550,271.622925 301.330750,275.263733 301.953918,278.904510 
	C298.528259,275.959930 295.102600,273.015381 291.375916,269.908569 
z"/>
<path fill="#94E6D4" opacity="1.000000" stroke="none" 
	d="
M309.665955,275.006531 
	C312.347198,276.365479 314.599396,278.088959 317.141754,278.880493 
	C319.385162,279.578918 321.952332,279.237305 324.674072,279.626404 
	C319.029022,281.929810 313.034180,282.766174 306.567993,280.035370 
	C305.634796,278.079010 304.706940,276.800079 304.603088,275.457428 
	C304.553070,274.811218 306.057098,274.044800 306.857422,273.332825 
	C307.692627,273.877197 308.527863,274.421539 309.665955,275.006531 
z"/>
<path fill="#06686F" opacity="1.000000" stroke="none" 
	d="
M312.990875,257.983093 
	C313.915833,257.451019 314.835480,256.472717 315.766632,256.461609 
	C320.620880,256.403748 325.477997,256.591919 330.650696,256.433258 
	C332.691406,256.155029 334.415558,256.138000 336.492828,256.512085 
	C335.885712,257.920563 334.925537,258.937866 333.574646,259.975647 
	C328.142120,260.302673 323.100342,260.609222 317.979492,260.578125 
	C316.263916,259.488037 314.627380,258.735565 312.990875,257.983093 
z"/>
<path fill="#609CA2" opacity="1.000000" stroke="none" 
	d="
M252.819916,140.529236 
	C253.638885,143.613724 254.324905,146.406830 254.832367,149.789276 
	C253.260773,149.455963 251.867737,148.533340 250.360077,147.534775 
	C250.059448,148.989166 249.820465,150.145355 249.496475,151.712738 
	C247.828705,149.536102 246.485336,147.782837 245.141968,146.029572 
	C245.130936,145.849335 245.119919,145.669098 245.449631,145.237701 
	C246.825058,144.986542 247.859756,144.986542 249.263306,144.986542 
	C248.192322,141.346268 247.232468,138.083725 246.272614,134.821198 
	C248.410736,136.626755 250.548859,138.432312 252.819916,140.529236 
z"/>
<path fill="#06827C" opacity="1.000000" stroke="none" 
	d="
M333.965363,259.955200 
	C334.925537,258.937866 335.885712,257.920563 336.917633,256.588074 
	C343.462738,253.915924 349.936127,251.558975 356.967194,249.284073 
	C357.671173,249.906738 357.817444,250.447357 357.963715,250.987976 
	C357.963715,250.987976 357.996094,251.006073 357.740845,251.089417 
	C357.305847,251.476990 357.126129,251.781204 356.946381,252.085419 
	C355.999054,252.783371 355.051697,253.481308 353.657440,254.519989 
	C352.471191,254.904541 351.731842,254.948364 350.639221,254.995270 
	C349.520752,255.661469 348.755554,256.324585 347.995178,256.993835 
	C348.000000,257.000000 347.990540,256.990021 347.613708,256.993164 
	C342.813049,257.982635 338.389191,258.968933 333.965363,259.955200 
z"/>
<path fill="#2F6278" opacity="1.000000" stroke="none" 
	d="
M317.722046,251.763336 
	C314.412903,253.119751 310.852570,254.239822 306.892334,255.677399 
	C306.492401,255.994919 306.030609,256.016632 305.887390,255.721802 
	C304.806152,254.222549 303.868164,253.018127 302.930145,251.813690 
	C304.377319,249.620056 305.824493,247.426422 307.562622,245.085327 
	C311.059296,247.134262 314.265076,249.330627 317.722046,251.763336 
z"/>
<path fill="#79B9B6" opacity="1.000000" stroke="none" 
	d="
M246.238480,134.837234 
	C247.232468,138.083725 248.192322,141.346268 249.263306,144.986542 
	C247.859756,144.986542 246.825058,144.986542 245.445648,144.966888 
	C244.799072,144.448380 244.497238,143.949524 244.084229,143.178894 
	C242.492264,138.711304 241.011459,134.515472 239.791000,130.113861 
	C241.950439,131.061508 243.849548,132.214920 245.727600,133.766174 
	C245.863937,134.417389 246.021301,134.670792 246.178665,134.924194 
	C246.178665,134.924194 246.204346,134.853271 246.238480,134.837234 
z"/>
<path fill="#EF9D0B" opacity="1.000000" stroke="none" 
	d="
M296.486938,344.400391 
	C296.107941,344.040894 296.082367,343.517212 296.055603,342.601318 
	C297.940094,340.796021 299.655090,338.881104 301.776001,338.159760 
	C303.031891,337.732666 305.463409,338.770050 306.375031,339.928772 
	C307.159088,340.925354 306.537598,343.027771 306.537598,344.236206 
	C302.603241,344.236206 299.721802,344.236206 296.486938,344.400391 
z"/>
<path fill="#609CA2" opacity="1.000000" stroke="none" 
	d="
M306.888794,272.930664 
	C306.057098,274.044800 304.553070,274.811218 304.603088,275.457428 
	C304.706940,276.800079 305.634796,278.079010 306.346375,279.745667 
	C305.198151,279.824585 303.927490,279.542023 302.305359,279.081970 
	C301.330750,275.263733 300.707550,271.622925 300.319092,267.487793 
	C300.553864,266.993439 300.991241,266.809113 301.331238,266.890808 
	C303.374207,267.952606 305.077179,268.932739 306.826721,269.970337 
	C306.873322,270.027802 306.971313,270.138580 306.971313,270.138580 
	C306.954254,270.935211 306.937225,271.731842 306.888794,272.930664 
z"/>
<path fill="#F6C670" opacity="1.000000" stroke="none" 
	d="
M236.323486,313.241882 
	C237.251343,313.340790 238.044662,313.907898 238.899216,314.766876 
	C238.654648,320.764496 238.323456,326.469055 238.056839,332.176636 
	C237.963928,334.165741 238.030426,336.162262 237.742157,338.626343 
	C237.213898,339.196564 236.958038,339.250153 236.692612,339.258057 
	C236.524719,330.742065 236.356842,322.226044 236.323486,313.241882 
z"/>
<path fill="#EF9D0B" opacity="1.000000" stroke="none" 
	d="
M236.620285,339.675140 
	C236.958038,339.250153 237.213898,339.196564 237.657394,339.093994 
	C239.893921,342.437775 241.933243,345.784821 243.793457,348.837952 
	C241.448517,348.837952 238.046387,348.837952 235.238693,348.837952 
	C235.669525,345.960022 236.108749,343.026123 236.620285,339.675140 
z"/>
<path fill="#095767" opacity="1.000000" stroke="none" 
	d="
M262.028870,212.372192 
	C263.473328,210.119019 264.954681,208.208313 267.032471,206.301224 
	C268.453796,207.599716 269.278717,208.894623 270.103638,210.189514 
	C268.062225,212.028976 266.020813,213.868439 263.690063,215.815308 
	C262.955688,214.853363 262.510712,213.784012 262.028870,212.372192 
z"/>
<path fill="#F0A217" opacity="1.000000" stroke="none" 
	d="
M217.761353,314.568726 
	C217.232605,315.238373 216.334152,315.910309 216.146805,315.750183 
	C213.452896,313.447876 210.854721,311.033539 208.674820,309.048035 
	C210.535782,309.048035 213.435638,309.048035 216.726624,309.048035 
	C217.056091,310.747467 217.389221,312.465790 217.761353,314.568726 
z"/>
<path fill="#F3BE5E" opacity="1.000000" stroke="none" 
	d="
M259.610748,275.020935 
	C260.434113,275.315460 260.937408,275.702393 261.771576,276.166565 
	C261.892334,282.504120 257.529327,279.490051 254.300842,279.326233 
	C255.783188,277.728943 257.536926,276.421143 259.610748,275.020935 
z"/>
<path fill="#F3BE5E" opacity="1.000000" stroke="none" 
	d="
M361.670410,330.528595 
	C361.893097,331.058197 361.790955,331.368958 361.482147,331.820190 
	C358.561401,332.734863 355.847351,333.509094 352.841461,334.366577 
	C352.874268,333.845367 352.975769,332.233398 353.096924,330.309753 
	C356.118256,330.309753 358.731934,330.309753 361.670410,330.528595 
z"/>
<path fill="#02C59A" opacity="1.000000" stroke="none" 
	d="
M358.281677,250.865387 
	C357.817444,250.447357 357.671173,249.906738 357.307709,249.183609 
	C359.174896,247.263107 361.259277,245.525116 363.650787,243.600433 
	C362.171844,245.856735 360.385742,248.299759 358.281677,250.865387 
z"/>
<path fill="#F3BE5E" opacity="1.000000" stroke="none" 
	d="
M368.255127,331.853394 
	C367.583282,331.731537 367.343994,331.485992 367.052124,330.983459 
	C369.758270,330.510345 372.516968,330.294250 375.275696,330.078156 
	C375.298706,330.628662 375.321747,331.179169 375.344757,331.729675 
	C373.125763,331.729675 370.906738,331.729675 368.255127,331.853394 
z"/>
<path fill="#A86E1E" opacity="1.000000" stroke="none" 
	d="
M240.378830,220.127060 
	C241.820862,218.527283 243.575729,216.798065 245.692383,215.051880 
	C244.266678,216.689148 242.479172,218.343384 240.378830,220.127060 
z"/>
<path fill="#B22656" opacity="1.000000" stroke="none" 
	d="
M378.900085,182.717712 
	C379.035309,184.012436 379.067993,185.089447 378.818146,186.359451 
	C378.055389,185.911118 377.575226,185.269791 377.042023,184.035736 
	C376.996826,183.055084 377.004700,182.667175 377.254852,182.246643 
	C377.497162,182.214020 377.959808,182.055679 377.959808,182.055679 
	C378.292511,182.103027 378.571747,182.251129 378.900085,182.717712 
z"/>
<path fill="#E5869F" opacity="1.000000" stroke="none" 
	d="
M374.508148,196.642548 
	C374.508148,196.642548 374.472809,196.426590 374.538544,196.338959 
	C375.186646,197.698471 375.769012,199.145599 376.123962,200.805969 
	C375.896484,201.019226 375.467163,200.959534 375.249237,200.481445 
	C374.856934,198.883072 374.682526,197.762817 374.508148,196.642548 
z"/>
<path fill="#DC5B7E" opacity="1.000000" stroke="none" 
	d="
M377.858459,181.746643 
	C377.959808,182.055679 377.497162,182.214020 376.865479,182.164825 
	C375.970154,182.090973 375.706543,182.066315 375.442932,182.041641 
	C374.977081,181.540451 374.511261,181.039246 374.107605,180.196198 
	C374.169830,179.854340 374.372162,179.692886 374.372162,179.692871 
	C375.500488,180.274460 376.628815,180.856033 377.858459,181.746643 
z"/>
<path fill="#A86E1E" opacity="1.000000" stroke="none" 
	d="
M249.411270,212.067291 
	C249.617722,211.485718 250.119568,210.799973 250.986588,210.112701 
	C250.803406,210.728500 250.255035,211.345810 249.411270,212.067291 
z"/>
<path fill="#E5869F" opacity="1.000000" stroke="none" 
	d="
M109.901962,206.815247 
	C109.492798,206.307037 109.179504,205.450577 108.974037,204.250259 
	C109.387184,204.759933 109.692505,205.613449 109.901962,206.815247 
z"/>
<path fill="#095767" opacity="1.000000" stroke="none" 
	d="
M280.925507,253.370224 
	C281.393616,253.051498 281.899750,253.057053 282.785156,253.105713 
	C282.695007,253.666611 282.225616,254.184387 281.518188,254.831940 
	C281.174622,254.539322 281.069061,254.116913 280.925507,253.370224 
z"/>
<path fill="#E5869F" opacity="1.000000" stroke="none" 
	d="
M110.941383,210.824005 
	C110.487656,210.344299 110.130440,209.511688 109.864807,208.331268 
	C110.316895,208.812668 110.677391,209.641876 110.941383,210.824005 
z"/>
<path fill="#DC5B7E" opacity="1.000000" stroke="none" 
	d="
M376.293030,258.067230 
	C376.433258,257.632385 376.883331,257.281036 377.632568,256.932190 
	C377.488739,257.340027 377.045807,257.745361 376.293030,258.067230 
z"/>
<path fill="#CF1F4F" opacity="1.000000" stroke="none" 
	d="
M375.603821,182.322571 
	C375.706543,182.066315 375.970154,182.090973 376.623169,182.197449 
	C377.004700,182.667175 376.996826,183.055084 376.982697,183.735916 
	C376.572510,183.553741 376.168610,183.078629 375.603821,182.322571 
z"/>
<path fill="#609CA2" opacity="1.000000" stroke="none" 
	d="
M246.313385,134.663071 
	C246.021301,134.670792 245.863937,134.417389 245.886444,134.059601 
	C246.193588,134.104111 246.320847,134.253021 246.313385,134.663071 
z"/>
<path fill="#06827C" opacity="1.000000" stroke="none" 
	d="
M148.398911,172.243469 
	C148.344742,172.001663 148.565567,171.678650 149.095978,171.350098 
	C149.161667,171.617111 148.917786,171.889694 148.398911,172.243469 
z"/>
<path fill="#DC5B7E" opacity="1.000000" stroke="none" 
	d="
M374.071350,179.938370 
	C373.768158,179.828064 373.563416,179.633728 373.358673,179.439377 
	C373.618347,179.398666 373.878021,179.357941 374.254944,179.505066 
	C374.372162,179.692886 374.169830,179.854340 374.071350,179.938370 
z"/>
<path fill="#0EB596" opacity="1.000000" stroke="none" 
	d="
M149.935623,247.055389 
	C149.912674,247.048065 150.093765,247.210632 150.093765,247.210632 
	C150.093765,247.210632 150.030304,246.957993 150.004059,247.034149 
	C149.977814,247.110306 149.958572,247.062698 149.935623,247.055389 
z"/>
<path fill="#F6CE86" opacity="1.000000" stroke="none" 
	d="
M346.314117,201.152084 
	C346.275269,200.897690 346.493408,200.613480 346.995728,200.368469 
	C347.043640,200.645859 346.807373,200.884064 346.314117,201.152084 
z"/>
<path fill="#A86E1E" opacity="1.000000" stroke="none" 
	d="
M246.281281,214.985947 
	C246.220932,214.780228 246.419083,214.501648 246.863708,214.133209 
	C246.920044,214.333267 246.729889,214.623184 246.281281,214.985947 
z"/>
<path fill="#A86E1E" opacity="1.000000" stroke="none" 
	d="
M247.307281,214.036133 
	C247.239166,213.819412 247.435577,213.528473 247.886917,213.148483 
	C247.951828,213.360275 247.761826,213.661102 247.307281,214.036133 
z"/>
<path fill="#A86E1E" opacity="1.000000" stroke="none" 
	d="
M248.326202,213.063965 
	C248.256668,212.843948 248.453568,212.545944 248.913132,212.164154 
	C248.981415,212.382233 248.787018,212.684097 248.326202,213.063965 
z"/>
<path fill="#A7184B" opacity="1.000000" stroke="none" 
	d="
M151.001450,279.997559 
	C151.750778,279.999237 152.500107,280.000885 153.794556,280.238678 
	C154.933426,280.569550 155.527161,280.664246 156.120880,280.758972 
	C156.144058,280.550873 156.167221,280.342743 156.190384,280.134644 
	C155.461075,280.088928 154.731750,280.043243 154.002441,279.997559 
	C148.583557,276.290070 142.991653,272.808350 137.787689,268.820435 
	C130.580338,263.297241 125.336815,256.155182 122.378632,247.332550 
	C124.346085,248.358841 126.019928,249.641479 127.572174,251.057449 
	C133.723389,256.668488 139.836548,262.321259 146.094818,268.200256 
	C146.547089,268.601837 146.868347,268.761749 147.382568,268.925842 
	C147.575531,268.930023 147.954147,269.005280 148.074722,269.230255 
	C148.483856,269.623260 148.772415,269.791290 149.031586,269.978333 
	C149.002182,269.997314 149.037155,269.936646 149.155167,270.186401 
	C149.601868,270.581848 149.930557,270.727509 150.436386,270.862671 
	C150.613541,270.852203 150.960709,270.926086 151.097900,271.176025 
	C151.573837,271.577698 151.912567,271.729401 152.429367,271.869690 
	C152.607437,271.858246 152.957565,271.927277 153.100159,272.179749 
	C153.591919,272.575378 153.941101,272.718536 154.457031,272.836243 
	C154.623779,272.810822 154.954651,272.876709 155.111694,273.209534 
	C170.812149,281.586792 187.182297,284.352814 204.295303,280.315002 
	C227.837387,274.760254 246.526947,260.703308 263.728577,244.631134 
	C285.296356,224.479477 304.204620,201.438629 329.315796,184.850449 
	C330.046112,184.565445 330.497314,184.280670 331.182068,183.899628 
	C331.625000,183.546173 331.834351,183.288971 332.376526,182.860870 
	C341.387878,179.351517 350.131165,178.578491 359.183167,182.288773 
	C361.881592,184.714508 364.377838,186.878494 366.874084,189.042480 
	C364.465302,188.040802 362.027649,187.102859 359.652924,186.026062 
	C350.731750,181.980850 341.971008,184.093079 334.429321,188.643600 
	C325.990814,193.735275 318.672760,200.667725 310.762482,206.661041 
	C308.462067,208.404007 305.522003,209.350281 303.364502,211.224899 
	C298.147888,215.757492 293.067322,220.471283 288.207184,225.384354 
	C278.194641,235.505997 269.727234,247.856461 258.145325,255.566254 
	C239.291611,268.116730 221.786880,284.045929 197.937561,287.542053 
	C181.673828,289.926208 166.045700,288.451782 151.163116,280.315430 
	C151.000000,280.000000 151.001450,279.997559 151.001450,279.997559 
z"/>
<path fill="#DF6686" opacity="1.000000" stroke="none" 
	d="
M150.960709,270.926086 
	C150.960709,270.926086 150.613541,270.852203 150.280304,270.647369 
	C149.643753,270.273926 149.340454,270.105286 149.037155,269.936646 
	C149.037155,269.936646 149.002182,269.997314 148.919235,269.746918 
	C148.542236,269.332764 148.248199,269.169037 147.954147,269.005280 
	C147.954147,269.005280 147.575531,268.930023 147.231598,268.702393 
	C146.579712,268.302734 146.271759,268.130646 145.963806,267.958557 
	C139.836548,262.321259 133.723389,256.668488 127.572174,251.057449 
	C126.019928,249.641479 124.346085,248.358841 122.384216,246.955170 
	C121.021202,243.500946 120.002083,240.106461 118.978378,236.348495 
	C123.053215,240.231522 127.377335,244.272430 131.157364,248.770538 
	C137.574326,256.406464 146.325470,260.282562 155.153656,263.755035 
	C162.257111,266.549072 169.845856,268.109375 178.716156,270.644958 
	C172.962189,270.644958 168.540268,270.644958 164.118347,270.644958 
	C176.420746,272.957336 188.139908,270.588928 200.103683,267.676697 
	C221.625351,262.437866 236.446686,247.794464 251.851639,233.674606 
	C254.415909,231.324249 256.775665,227.695770 259.750824,227.047241 
	C268.544586,225.130280 272.154083,217.409668 278.002045,212.304428 
	C284.257080,206.843811 289.676636,200.436401 295.802521,194.814575 
	C301.284332,189.783844 306.730652,184.383392 313.104828,180.743591 
	C320.361267,176.600006 328.463928,173.653183 336.528931,171.334518 
	C340.393555,170.223450 345.047150,171.576691 349.279266,172.229599 
	C350.278992,172.383865 351.020203,174.213928 351.409668,174.693497 
	C353.336792,174.693497 355.121490,174.173721 356.357605,174.777344 
	C364.755981,178.878326 369.092712,186.500854 372.850891,194.901672 
	C371.016632,193.321014 369.232300,191.356735 367.161011,189.217468 
	C364.377838,186.878494 361.881592,184.714508 359.142365,181.933762 
	C357.279541,180.252853 355.786011,178.861542 354.018738,178.179306 
	C344.742340,174.598267 335.455933,175.096008 326.369598,178.858322 
	C312.276489,184.693787 301.587860,195.326477 290.472656,205.191544 
	C278.301758,215.993622 266.678314,227.415756 254.892212,238.647324 
	C240.197205,252.650940 223.702896,263.827332 204.700897,271.186096 
	C203.307755,271.725616 202.187622,272.970154 200.523834,273.915222 
	C198.805527,274.123108 197.461334,274.152039 196.209213,274.506378 
	C187.036331,277.102112 177.772842,277.887421 168.383530,275.939697 
	C163.888855,275.007355 159.429825,273.903107 154.954651,272.876709 
	C154.954651,272.876709 154.623779,272.810822 154.283722,272.615234 
	C153.614960,272.255524 153.286255,272.091400 152.957565,271.927277 
	C152.957565,271.927277 152.607437,271.858246 152.265106,271.646423 
	C151.602081,271.265106 151.281387,271.095612 150.960709,270.926086 
z"/>
<path fill="#DF6686" opacity="1.000000" stroke="none" 
	d="
M374.282440,196.914703 
	C374.682526,197.762817 374.856934,198.883072 375.039673,200.426071 
	C374.717621,199.628143 374.387177,198.407501 374.282440,196.914703 
z"/>
<path fill="#A7184B" opacity="1.000000" stroke="none" 
	d="
M149.000885,278.998779 
	C149.557358,279.167175 150.113846,279.335571 150.835876,279.750793 
	C151.001450,279.997559 151.000000,280.000000 150.998779,280.001221 
	C150.441330,279.833496 149.885101,279.664551 149.164429,279.247803 
	C149.000000,279.000000 149.000885,278.998779 149.000885,278.998779 
z"/>
<path fill="#A7184B" opacity="1.000000" stroke="none" 
	d="
M148.999390,279.000610 
	C148.566101,278.878510 148.133438,278.755768 147.700775,278.633026 
	C148.052811,278.617096 148.404831,278.601135 148.878876,278.791992 
	C149.000885,278.998779 149.000000,279.000000 148.999390,279.000610 
z"/>
<path fill="#A7184B" opacity="1.000000" stroke="none" 
	d="
M300.531128,215.547607 
	C300.474579,215.581512 300.587646,215.513687 300.531128,215.547607 
z"/>
<path fill="#06686F" opacity="1.000000" stroke="none" 
	d="
M270.411133,210.052292 
	C269.278717,208.894623 268.453796,207.599716 267.336517,206.157761 
	C265.731964,200.607925 271.637604,201.140823 273.984192,198.315521 
	C275.733978,199.911270 276.907104,201.464218 278.080261,203.017151 
	C275.626373,205.316452 273.172485,207.615753 270.411133,210.052292 
z"/>
<path fill="#2F6278" opacity="1.000000" stroke="none" 
	d="
M278.375366,202.916107 
	C276.907104,201.464218 275.733978,199.911270 274.298889,198.160431 
	C274.036987,197.962540 274.032990,197.503265 274.331665,197.103760 
	C278.505524,194.305130 276.239319,191.605164 275.009888,188.955994 
	C275.711182,188.270111 276.412506,187.584213 277.400635,186.806442 
	C280.207489,188.842407 282.670685,190.769730 278.871643,194.198334 
	C278.277771,194.734283 279.997040,197.833221 280.954468,199.936371 
	C280.398315,201.022141 279.534424,201.918594 278.375366,202.916107 
z"/>
<path fill="#409395" opacity="1.000000" stroke="none" 
	d="
M245.102692,146.432678 
	C246.485336,147.782837 247.828705,149.536102 249.496475,151.712738 
	C249.820465,150.145355 250.059448,148.989166 250.360077,147.534775 
	C251.867737,148.533340 253.260773,149.455963 254.849854,150.186432 
	C255.349258,150.469833 255.652603,150.945404 255.975006,152.147552 
	C255.638901,155.881973 255.283722,158.889816 254.622284,161.757950 
	C252.560638,159.057053 250.805237,156.495865 249.049850,153.934662 
	C247.910599,153.061417 246.771347,152.188171 245.343277,151.212097 
	C245.039825,150.940445 245.025177,150.771622 244.998260,150.350067 
	C245.011780,149.010147 245.037598,147.922958 245.102692,146.432678 
z"/>
<path fill="#FCFBF8" opacity="1.000000" stroke="none" 
	d="
M148.691071,309.954712 
	C155.647415,311.123810 159.360153,315.576721 158.786987,321.557556 
	C158.133820,328.373138 153.879776,331.439209 145.022202,330.918152 
	C145.022202,324.590454 144.928162,318.191833 145.163910,311.805359 
	C145.188187,311.147766 147.181137,310.562866 148.691071,309.954712 
z"/>
<path fill="#06827C" opacity="1.000000" stroke="none" 
	d="
M241.249146,166.997223 
	C235.933929,164.688095 230.863510,162.390060 225.806763,160.062363 
	C224.222992,159.333328 222.675980,158.524429 221.037781,157.401733 
	C225.155640,158.290497 229.291397,159.816376 233.562027,160.657181 
	C235.979141,161.133102 238.616745,160.400497 241.156891,160.370789 
	C242.895432,160.350433 244.637161,160.603424 246.557205,161.176788 
	C245.157730,163.413330 243.578537,165.207275 241.999344,167.001221 
	C241.832642,166.999786 241.665924,166.998337 241.249146,166.997223 
z"/>
<path fill="#06686F" opacity="1.000000" stroke="none" 
	d="
M242.200012,167.275803 
	C243.578537,165.207275 245.157730,163.413330 246.872421,161.316727 
	C247.007904,161.014069 247.499268,160.978226 247.884125,161.269531 
	C249.849121,162.712967 251.429230,163.865067 253.009338,165.017181 
	C250.627197,171.969604 250.370575,172.030884 242.200012,167.275803 
z"/>
<path fill="#06827C" opacity="1.000000" stroke="none" 
	d="
M253.263153,164.995697 
	C251.429230,163.865067 249.849121,162.712967 248.130219,161.258362 
	C248.332001,158.885223 248.672562,156.814575 249.031494,154.339294 
	C250.805237,156.495865 252.560638,159.057053 254.527161,162.066574 
	C254.500397,163.320679 254.262512,164.126450 254.024628,164.932236 
	C253.855408,164.946228 253.686188,164.960236 253.263153,164.995697 
z"/>
<path fill="#F3B442" opacity="1.000000" stroke="none" 
	d="
M283.002441,161.002655 
	C287.317474,160.334244 291.615845,159.453522 295.953979,159.159607 
	C296.880493,159.096832 297.951385,161.164749 298.923187,162.682877 
	C288.988159,162.725052 281.531586,167.086624 275.200928,174.476410 
	C267.235321,183.774734 258.798767,192.669662 250.240005,201.831696 
	C250.919022,199.787857 251.601791,197.409149 252.990875,195.561478 
	C256.524109,190.861801 260.373260,186.399612 264.456573,181.411407 
	C270.879517,174.321823 276.941833,167.663193 283.004150,161.004578 
	C283.004150,161.004578 283.000000,161.000000 283.002441,161.002655 
z"/>
<path fill="#2F6278" opacity="1.000000" stroke="none" 
	d="
M254.324829,165.094177 
	C254.262512,164.126450 254.500397,163.320679 254.833405,162.206268 
	C255.283722,158.889816 255.638901,155.881973 256.002655,152.443298 
	C258.185089,154.423050 260.373108,156.821030 262.528168,159.248291 
	C264.200226,161.131546 265.831177,163.051331 267.837708,165.010071 
	C266.034393,168.328949 263.873749,171.592651 261.419189,175.027191 
	C258.958557,171.884048 256.791809,168.570099 254.324829,165.094177 
z"/>
<path fill="#F6C670" opacity="1.000000" stroke="none" 
	d="
M282.639160,160.992645 
	C276.941833,167.663193 270.879517,174.321823 264.490479,181.055542 
	C264.204834,179.908768 263.770325,178.342178 264.365112,177.521561 
	C267.936310,172.594193 271.806488,167.884827 275.446320,163.005310 
	C277.291046,160.532333 279.483765,159.921249 282.639160,160.992645 
z"/>
<path fill="#F3B442" opacity="1.000000" stroke="none" 
	d="
M249.561890,201.916199 
	C241.809448,209.577362 233.694946,217.240067 225.222916,224.874939 
	C225.416382,223.874527 225.777603,222.705826 226.548187,221.960144 
	C233.034470,215.683685 239.570236,209.457413 246.168533,203.298981 
	C246.938217,202.580612 248.178009,202.365952 249.561890,201.916199 
z"/>
<path fill="#EC9804" opacity="1.000000" stroke="none" 
	d="
M212.598206,235.893234 
	C210.180206,240.698776 205.656525,242.777802 200.186127,244.006775 
	C203.930054,241.265106 208.082169,238.549103 212.598206,235.893234 
z"/>
<path fill="#F3B442" opacity="1.000000" stroke="none" 
	d="
M223.514313,225.860168 
	C222.497543,226.920837 221.136993,227.999237 219.427917,229.079773 
	C220.443115,228.013916 221.806824,226.945908 223.514313,225.860168 
z"/>
<path fill="#F3B442" opacity="1.000000" stroke="none" 
	d="
M217.470215,230.827042 
	C217.065781,231.507858 216.324585,232.222382 215.245758,232.918808 
	C215.649918,232.220734 216.391693,231.540741 217.470215,230.827042 
z"/>
<path fill="#F3B442" opacity="1.000000" stroke="none" 
	d="
M265.013641,276.343872 
	C279.319550,272.655884 287.660583,262.295319 294.936157,250.312454 
	C294.943848,249.959946 294.971405,249.981445 295.285889,249.856079 
	C298.054413,246.477921 300.508484,243.225143 302.962585,239.972366 
	C302.962585,239.972366 302.993225,240.000610 303.292297,239.874176 
	C305.006622,238.792862 306.421875,237.837982 307.837128,236.883087 
	C306.569031,238.917633 305.442871,241.058746 304.008789,242.968643 
	C297.181610,252.060974 290.761139,261.532684 283.173187,269.947052 
	C279.625275,273.881348 273.833923,275.868134 268.878632,278.381195 
	C268.076630,278.787964 266.329498,277.331146 265.013641,276.343872 
z"/>
<path fill="#095767" opacity="1.000000" stroke="none" 
	d="
M300.991241,266.809113 
	C300.991241,266.809113 300.553864,266.993439 300.330994,267.074402 
	C298.732361,265.809357 297.356628,264.463348 295.667664,263.068970 
	C297.687347,259.407501 300.020203,255.794342 302.641602,251.997437 
	C303.868164,253.018127 304.806152,254.222549 305.734741,256.015991 
	C304.822083,258.079468 303.918823,259.553925 302.749390,261.248932 
	C301.985840,263.249359 301.488525,265.029236 300.991241,266.809113 
z"/>
<path fill="#E89608" opacity="1.000000" stroke="none" 
	d="
M318.426453,223.136932 
	C320.166321,220.737106 322.269012,218.397659 324.723083,216.062347 
	C322.979431,218.443405 320.884399,220.820358 318.426453,223.136932 
z"/>
<path fill="#E89608" opacity="1.000000" stroke="none" 
	d="
M308.073639,236.722809 
	C306.421875,237.837982 305.006622,238.792862 303.281311,239.858963 
	C304.733490,237.643509 306.495789,235.316849 308.630127,233.322784 
	C309.009491,234.112671 309.016846,234.569946 309.024170,235.027206 
	C308.786194,235.538986 308.548187,236.050751 308.073639,236.722809 
z"/>
<path fill="#F3B442" opacity="1.000000" stroke="none" 
	d="
M309.372803,234.994919 
	C309.016846,234.569946 309.009491,234.112671 308.981995,233.312836 
	C308.961853,232.970261 308.987549,232.991699 309.287231,232.874481 
	C311.099365,231.548035 312.611816,230.338806 314.124237,229.129593 
	C312.656616,231.073929 311.189026,233.018280 309.372803,234.994919 
z"/>
<path fill="#E89608" opacity="1.000000" stroke="none" 
	d="
M314.175049,228.847839 
	C312.611816,230.338806 311.099365,231.548035 309.279968,232.867538 
	C308.881134,229.843231 310.414551,228.181152 313.937378,227.978439 
	C314.306580,228.192963 314.266235,228.379517 314.175049,228.847839 
z"/>
<path fill="#F3B442" opacity="1.000000" stroke="none" 
	d="
M333.977081,209.766388 
	C334.246246,208.950333 334.853729,208.094620 335.781372,207.183289 
	C335.506104,207.994019 334.910736,208.860382 333.977081,209.766388 
z"/>
<path fill="#E89608" opacity="1.000000" stroke="none" 
	d="
M315.286926,227.124512 
	C315.156067,226.667801 315.311340,226.012192 315.771545,225.196976 
	C315.908600,225.666779 315.740814,226.296204 315.286926,227.124512 
z"/>
<path fill="#E89608" opacity="1.000000" stroke="none" 
	d="
M327.362122,214.159119 
	C327.498352,213.718460 327.952545,213.352890 328.719330,213.006897 
	C328.581360,213.429047 328.130737,213.831619 327.362122,214.159119 
z"/>
<path fill="#E89608" opacity="1.000000" stroke="none" 
	d="
M316.338501,225.049774 
	C316.222412,224.776443 316.394257,224.487778 316.814819,224.123672 
	C316.917816,224.376968 316.772156,224.705704 316.338501,225.049774 
z"/>
<path fill="#E89608" opacity="1.000000" stroke="none" 
	d="
M317.335266,224.045731 
	C317.220551,223.774246 317.392181,223.485260 317.812927,223.121216 
	C317.915192,223.373505 317.768402,223.700851 317.335266,224.045731 
z"/>
<path fill="#E89608" opacity="1.000000" stroke="none" 
	d="
M325.339722,216.051514 
	C325.222595,215.775253 325.395447,215.488174 325.817261,215.126770 
	C325.920715,215.381882 325.775238,215.711288 325.339722,216.051514 
z"/>
<path fill="#E89608" opacity="1.000000" stroke="none" 
	d="
M331.320618,210.989838 
	C331.281311,210.739792 331.541595,210.430649 332.119324,210.073669 
	C332.164581,210.327469 331.892426,210.629089 331.320618,210.989838 
z"/>
<path fill="#E89608" opacity="1.000000" stroke="none" 
	d="
M326.343567,215.056763 
	C326.226105,214.780121 326.399902,214.493744 326.821411,214.131104 
	C326.924347,214.385574 326.779602,214.716324 326.343567,215.056763 
z"/>
<path fill="#E89608" opacity="1.000000" stroke="none" 
	d="
M329.282074,212.983459 
	C329.189270,212.744278 329.362366,212.453659 329.788269,212.091980 
	C329.876678,212.324615 329.712341,212.628311 329.282074,212.983459 
z"/>
<path fill="#E89608" opacity="1.000000" stroke="none" 
	d="
M330.288361,211.991516 
	C330.196045,211.752228 330.371460,211.463135 330.798645,211.100174 
	C330.885681,211.331451 330.720886,211.636566 330.288361,211.991516 
z"/>
<path fill="#06686F" opacity="1.000000" stroke="none" 
	d="
M292.523468,237.917358 
	C293.263947,238.415085 293.642212,238.941528 294.080627,239.798691 
	C291.997803,243.066299 289.854828,246.003204 287.362610,248.750854 
	C286.345520,247.374893 285.677704,246.188171 285.009888,245.001450 
	C286.472534,241.716003 287.765381,238.258438 292.523468,237.917358 
z"/>
<path fill="#E89608" opacity="1.000000" stroke="none" 
	d="
M302.612427,239.978470 
	C300.508484,243.225143 298.054413,246.477921 295.283997,249.849213 
	C297.399200,246.640015 299.830719,243.312286 302.612427,239.978470 
z"/>
<path fill="#095767" opacity="1.000000" stroke="none" 
	d="
M284.672211,245.187164 
	C285.677704,246.188171 286.345520,247.374893 287.062256,248.916092 
	C285.982574,250.486359 284.853973,251.702133 283.434753,253.037933 
	C283.540924,250.562927 283.937714,247.967911 284.672211,245.187164 
z"/>
<path fill="#08415D" opacity="1.000000" stroke="none" 
	d="
M274.720581,189.063370 
	C276.239319,191.605164 278.505524,194.305130 274.331482,196.874100 
	C273.363892,195.539093 272.695190,194.034225 271.984863,192.173615 
	C272.772614,190.935516 273.601959,190.053131 274.720581,189.063370 
z"/>
<path fill="#02C59A" opacity="1.000000" stroke="none" 
	d="
M350.992493,254.992188 
	C351.731842,254.948364 352.471191,254.904541 353.578400,254.816833 
	C347.140503,263.020142 337.952576,267.636932 327.899261,269.729584 
	C321.466980,271.068481 314.536102,270.011963 307.400024,270.083984 
	C306.971313,270.138580 306.873322,270.027802 306.890137,269.592773 
	C307.669708,266.952026 307.211914,263.788879 311.235199,264.251465 
	C324.913269,268.135254 336.972351,265.075256 347.990540,256.990021 
	C347.990540,256.990021 348.000000,257.000000 348.318848,256.977509 
	C349.422607,256.300751 350.207550,255.646469 350.992493,254.992188 
z"/>
<path fill="#02C59A" opacity="1.000000" stroke="none" 
	d="
M357.186646,251.968109 
	C357.126129,251.781204 357.305847,251.476990 357.736450,251.071503 
	C357.800507,251.263733 357.613708,251.557266 357.186646,251.968109 
z"/>
<path fill="#CF1F4F" opacity="1.000000" stroke="none" 
	d="
M387.301575,240.812790 
	C387.368378,236.783173 387.375946,232.440521 388.102783,228.221802 
	C390.328308,215.304398 387.194489,203.314377 382.327087,191.557648 
	C382.201874,191.255280 382.161041,190.917999 382.070801,190.207123 
	C388.171204,196.975861 389.742615,205.884903 390.840668,214.688995 
	C391.932343,223.441727 390.830811,232.207748 387.301575,240.812790 
z"/>
<path fill="#CF1F4F" opacity="1.000000" stroke="none" 
	d="
M384.283905,246.876526 
	C384.195862,246.470657 384.360168,245.899887 384.786591,245.172577 
	C384.877899,245.581223 384.707062,246.146439 384.283905,246.876526 
z"/>
<path fill="#CF1F4F" opacity="1.000000" stroke="none" 
	d="
M383.251343,248.852539 
	C383.177734,248.454803 383.352936,247.889755 383.788879,247.169342 
	C383.866486,247.571045 383.683319,248.128159 383.251343,248.852539 
z"/>
<path fill="#CF1F4F" opacity="1.000000" stroke="none" 
	d="
M382.261902,250.019562 
	C382.212006,249.857834 382.378326,249.549835 382.781738,249.119293 
	C382.838654,249.288940 382.658417,249.581131 382.261902,250.019562 
z"/>
<path fill="#CF1F4F" opacity="1.000000" stroke="none" 
	d="
M385.253784,244.935379 
	C385.196350,244.761353 385.371429,244.481308 385.767578,244.079910 
	C385.821167,244.248840 385.653717,244.539093 385.253784,244.935379 
z"/>
<path fill="#06827C" opacity="1.000000" stroke="none" 
	d="
M310.992065,263.950195 
	C307.211914,263.788879 307.669708,266.952026 306.843567,269.535339 
	C305.077179,268.932739 303.374207,267.952606 301.331238,266.890808 
	C301.488525,265.029236 301.985840,263.249359 303.065735,261.379028 
	C307.279663,263.127960 308.327606,259.961334 310.002441,258.009430 
	C310.749664,258.003052 311.496918,257.996674 312.617493,257.986694 
	C314.627380,258.735565 316.263916,259.488037 317.562134,260.609253 
	C314.843536,261.333344 311.576019,259.828461 310.992065,263.950195 
z"/>
<path fill="#06686F" opacity="1.000000" stroke="none" 
	d="
M309.833588,257.751465 
	C308.327606,259.961334 307.279663,263.127960 303.331940,261.158447 
	C303.918823,259.553925 304.822083,258.079468 305.877991,256.310791 
	C306.030609,256.016632 306.492401,255.994919 306.722961,255.988525 
	C307.857239,256.485901 308.760986,256.989685 309.833588,257.751465 
z"/>
<path fill="#039F88" opacity="1.000000" stroke="none" 
	d="
M311.235199,264.251465 
	C311.576019,259.828461 314.843536,261.333344 317.641174,260.946899 
	C323.100342,260.609222 328.142120,260.302673 333.574646,259.975647 
	C338.389191,258.968933 342.813049,257.982635 347.613708,256.993164 
	C336.972351,265.075256 324.913269,268.135254 311.235199,264.251465 
z"/>
<path fill="#039F88" opacity="1.000000" stroke="none" 
	d="
M350.639221,254.995270 
	C350.207550,255.646469 349.422607,256.300751 348.313995,256.971375 
	C348.755554,256.324585 349.520752,255.661469 350.639221,254.995270 
z"/>
<path fill="#CF1F4F" opacity="1.000000" stroke="none" 
	d="
M155.111694,273.209534 
	C159.429825,273.903107 163.888855,275.007355 168.383530,275.939697 
	C177.772842,277.887421 187.036331,277.102112 196.209213,274.506378 
	C197.461334,274.152039 198.805527,274.123108 200.919342,273.948181 
	C217.762894,269.916901 232.485413,262.822693 244.991470,252.228577 
	C262.823029,237.123123 279.550323,220.718842 297.270142,205.474762 
	C305.757568,198.173126 315.404327,192.208832 324.630768,185.789474 
	C325.767090,184.998886 327.552246,185.140839 329.036713,184.850662 
	C304.204620,201.438629 285.296356,224.479477 263.728577,244.631134 
	C246.526947,260.703308 227.837387,274.760254 204.295303,280.315002 
	C187.182297,284.352814 170.812149,281.586792 155.111694,273.209534 
z"/>
<path fill="#D84A71" opacity="1.000000" stroke="none" 
	d="
M329.315796,184.850449 
	C327.552246,185.140839 325.767090,184.998886 324.630768,185.789474 
	C315.404327,192.208832 305.757568,198.173126 297.270142,205.474762 
	C279.550323,220.718842 262.823029,237.123123 244.991470,252.228577 
	C232.485413,262.822693 217.762894,269.916901 201.336060,273.919891 
	C202.187622,272.970154 203.307755,271.725616 204.700897,271.186096 
	C223.702896,263.827332 240.197205,252.650940 254.892212,238.647324 
	C266.678314,227.415756 278.301758,215.993622 290.472656,205.191544 
	C301.587860,195.326477 312.276489,184.693787 326.369598,178.858322 
	C335.455933,175.096008 344.742340,174.598267 354.018738,178.179306 
	C355.786011,178.861542 357.279541,180.252853 358.940186,181.672012 
	C350.131165,178.578491 341.387878,179.351517 332.134796,182.945724 
	C331.356354,183.466293 331.152435,183.731094 330.948517,183.995895 
	C330.497314,184.280670 330.046112,184.565445 329.315796,184.850449 
z"/>
<path fill="#8D1A4E" opacity="1.000000" stroke="none" 
	d="
M154.001221,279.998779 
	C154.731750,280.043243 155.461075,280.088928 156.190384,280.134644 
	C156.167221,280.342743 156.144058,280.550873 156.120880,280.758972 
	C155.527161,280.664246 154.933426,280.569550 154.169235,280.238342 
	C153.998779,280.001892 154.000000,280.000000 154.001221,279.998779 
z"/>
<path fill="#CF1F4F" opacity="1.000000" stroke="none" 
	d="
M331.182068,183.899628 
	C331.152435,183.731094 331.356354,183.466293 331.802002,183.116608 
	C331.834351,183.288971 331.625000,183.546173 331.182068,183.899628 
z"/>
<path fill="#CF1F4F" opacity="1.000000" stroke="none" 
	d="
M153.100159,272.179749 
	C153.286255,272.091400 153.614960,272.255524 154.116974,272.640656 
	C153.941101,272.718536 153.591919,272.575378 153.100159,272.179749 
z"/>
<path fill="#CF1F4F" opacity="1.000000" stroke="none" 
	d="
M151.097900,271.176025 
	C151.281387,271.095612 151.602081,271.265106 152.087036,271.657898 
	C151.912567,271.729401 151.573837,271.577698 151.097900,271.176025 
z"/>
<path fill="#CF1F4F" opacity="1.000000" stroke="none" 
	d="
M149.155167,270.186401 
	C149.340454,270.105286 149.643753,270.273926 150.103149,270.657837 
	C149.930557,270.727509 149.601868,270.581848 149.155167,270.186401 
z"/>
<path fill="#CF1F4F" opacity="1.000000" stroke="none" 
	d="
M148.074722,269.230255 
	C148.248199,269.169037 148.542236,269.332764 148.948639,269.727905 
	C148.772415,269.791290 148.483856,269.623260 148.074722,269.230255 
z"/>
<path fill="#CF1F4F" opacity="1.000000" stroke="none" 
	d="
M146.094818,268.200256 
	C146.271759,268.130646 146.579712,268.302734 147.038635,268.698242 
	C146.868347,268.761749 146.547089,268.601837 146.094818,268.200256 
z"/>
</svg>